<?xml version="1.0" encoding="utf-8"?>
<!-- Generator: Adobe Illustrator 24.3.0, SVG Export Plug-In . SVG Version: 6.00 Build 0)  -->
<svg version="1.1" id="Capa_1" xmlns="http://www.w3.org/2000/svg" xmlns:xlink="http://www.w3.org/1999/xlink" x="0px" y="0px"
	 viewBox="0 0 1025 795.47" style="enable-background:new 0 0 1025 795.47;" xml:space="preserve">
<style type="text/css">
	.st0{fill:#387E20;}
	.st1{fill:#1C1D22;}
	.st2{fill:#5D8424;}
	.st3{fill:#80A131;}
	.st4{fill:#C7CF75;}
	.st5{fill:#CD1339;}
	.st6{fill:#D6804F;}
	.st7{fill:#A36744;}
	.st8{fill:#8B4C35;}
	.st9{fill:#F5A94B;}
	.st10{fill:#F28B2C;}
	.st11{fill:#EBD4A0;}
	.st12{fill:none;stroke:#1C1D22;stroke-width:5;stroke-linecap:round;stroke-miterlimit:10;}
	.st13{fill:#734D40;}
	.st14{fill:#A8755A;}
	.st15{fill:#FFFFFF;}
	.st16{fill:#DBBFA6;}
	.st17{fill:#B36132;}
	.st18{fill:#C98F6F;}
	.st19{fill:none;}
	.st20{fill:#B78864;}
	.st21{fill:#5C331D;}
	.st22{fill:none;stroke:#000000;stroke-miterlimit:10;}
	.st23{clip-path:url(#SVGID_8_);}
	.st24{clip-path:url(#SVGID_10_);fill:#D9824F;}
	.st25{clip-path:url(#SVGID_10_);}
	.st26{fill:none;stroke:#1C1D22;stroke-width:5;stroke-linecap:round;stroke-linejoin:round;stroke-miterlimit:10;}
	.st27{fill:#A8755A;stroke:#1C1D22;stroke-width:5;stroke-linecap:round;stroke-linejoin:round;stroke-miterlimit:10;}
	.st28{fill:#FFFFFF;stroke:#1C1D22;stroke-width:4;stroke-miterlimit:10;}
	.st29{fill:#387E20;stroke:#1C1D22;stroke-width:4;stroke-miterlimit:10;}
	.st30{fill:#5D8424;stroke:#1C1D22;stroke-width:4;stroke-miterlimit:10;}
	.st31{fill:none;stroke:#1C1D22;stroke-width:12;stroke-miterlimit:10;}
</style>
<g>
	<g>
		<g>
			<path class="st1" d="M51.47,784.29c8.33,0,15.31-2.35,20.94-7.05c5.63-4.7,8.68-10.78,9.14-18.24h11.49
				c-0.34,6.59-2.4,12.61-6.2,18.04c-3.8,5.43-8.84,9.68-15.14,12.74c-6.3,3.06-13.04,4.6-20.24,4.6
				c-14.19,0-25.43-4.93-33.73-14.79C9.45,769.73,5.3,756.47,5.3,739.81v-3.6c0-10.66,1.86-20.09,5.59-28.28s9.08-14.52,16.04-18.99
				c6.96-4.46,15.11-6.69,24.43-6.69c11.86,0,21.64,3.53,29.33,10.59c7.69,7.06,11.81,16.36,12.34,27.88H81.55
				c-0.53-8.46-3.58-15.29-9.14-20.49c-5.56-5.19-12.58-7.79-21.04-7.79c-10.79,0-19.17,3.9-25.13,11.69
				c-5.96,7.79-8.95,18.72-8.95,32.78v3.5c0,13.79,2.98,24.55,8.95,32.28C32.2,780.42,40.61,784.29,51.47,784.29z"/>
			<path class="st1" d="M110.33,736.72c0-10.39,2.02-19.75,6.05-28.08c4.03-8.33,9.73-14.8,17.09-19.44
				c7.36-4.63,15.71-6.94,25.03-6.94c14.39,0,26.05,5.05,34.98,15.14c8.93,10.09,13.39,23.47,13.39,40.12v2.5
				c0,10.46-2.02,19.87-6.04,28.23c-4.03,8.36-9.71,14.81-17.04,19.34c-7.33,4.53-15.69,6.8-25.08,6.8
				c-14.32,0-25.97-5.05-34.93-15.14s-13.44-23.47-13.44-40.12V736.72z M122.33,740.01c0,12.93,3.35,23.53,10.04,31.83
				c6.7,8.29,15.47,12.44,26.33,12.44c10.79,0,19.54-4.15,26.23-12.44c6.7-8.29,10.04-19.24,10.04-32.83v-2.3
				c0-8.26-1.53-15.82-4.6-22.69c-3.07-6.86-7.36-12.17-12.89-15.94c-5.53-3.76-11.86-5.65-18.99-5.65
				c-10.66,0-19.36,4.18-26.08,12.54c-6.73,8.36-10.09,19.31-10.09,32.83V740.01z"/>
			<path class="st1" d="M242.94,684.25l0.4,18.49c4.06-6.66,9.13-11.74,15.19-15.24c6.06-3.5,12.76-5.25,20.09-5.25
				c11.59,0,20.22,3.26,25.88,9.79c5.66,6.53,8.53,16.32,8.6,29.38v70.95h-11.89v-71.05c-0.07-9.66-2.12-16.86-6.15-21.59
				c-4.03-4.73-10.48-7.1-19.34-7.1c-7.4,0-13.94,2.32-19.64,6.95c-5.7,4.63-9.91,10.88-12.64,18.74v74.05h-11.89V684.25H242.94z"/>
			<path class="st1" d="M385.85,794.38c-9.19,0-17.5-2.26-24.93-6.8c-7.43-4.53-13.21-10.84-17.34-18.94
				c-4.13-8.1-6.2-17.17-6.2-27.23v-4.3c0-10.39,2.02-19.75,6.05-28.08c4.03-8.33,9.64-14.87,16.84-19.64
				c7.19-4.76,14.99-7.14,23.38-7.14c13.12,0,23.53,4.48,31.23,13.44c7.69,8.96,11.54,21.2,11.54,36.73v6.7h-77.15v2.3
				c0,12.26,3.51,22.47,10.54,30.63c7.03,8.16,15.87,12.24,26.53,12.24c6.4,0,12.04-1.17,16.94-3.5c4.9-2.33,9.34-6.06,13.34-11.19
				l7.5,5.69C415.33,788.02,402.57,794.38,385.85,794.38z M383.65,692.44c-9,0-16.57,3.3-22.74,9.89
				c-6.16,6.6-9.91,15.46-11.24,26.58h64.86v-1.3c-0.34-10.39-3.3-18.85-8.89-25.38C400.04,695.71,392.71,692.44,383.65,692.44z"/>
			<path class="st1" d="M489.68,784.29c8.33,0,15.31-2.35,20.94-7.05c5.63-4.7,8.68-10.78,9.14-18.24h11.49
				c-0.34,6.59-2.4,12.61-6.2,18.04c-3.8,5.43-8.84,9.68-15.14,12.74c-6.3,3.06-13.04,4.6-20.24,4.6
				c-14.19,0-25.43-4.93-33.73-14.79c-8.29-9.86-12.44-23.12-12.44-39.77v-3.6c0-10.66,1.86-20.09,5.59-28.28
				c3.73-8.19,9.08-14.52,16.04-18.99c6.96-4.46,15.11-6.69,24.43-6.69c11.86,0,21.64,3.53,29.33,10.59
				c7.69,7.06,11.81,16.36,12.34,27.88h-11.49c-0.53-8.46-3.58-15.29-9.14-20.49c-5.56-5.19-12.58-7.79-21.04-7.79
				c-10.79,0-19.17,3.9-25.13,11.69c-5.96,7.79-8.95,18.72-8.95,32.78v3.5c0,13.79,2.98,24.55,8.95,32.28
				C470.41,780.42,478.82,784.29,489.68,784.29z"/>
			<path class="st1" d="M573.72,656.57v27.68h22.38v9.79h-22.38v72.13c0,6,1.08,10.47,3.25,13.41c2.16,2.94,5.78,4.4,10.84,4.4
				c2,0,5.23-0.33,9.69-1l0.5,9.71c-3.13,1.12-7.4,1.68-12.79,1.68c-8.2,0-14.16-2.38-17.89-7.15c-3.73-4.76-5.6-11.78-5.6-21.04
				v-72.15h-19.89v-9.79h19.89v-27.68H573.72z"/>
			<path class="st1" d="M689.15,792.38c-1.2-3.4-1.97-8.43-2.3-15.09c-4.2,5.46-9.55,9.68-16.04,12.64
				c-6.49,2.96-13.38,4.45-20.64,4.45c-10.39,0-18.8-2.9-25.23-8.69c-6.43-5.8-9.64-13.12-9.64-21.99
				c0-10.52,4.38-18.85,13.14-24.98c8.76-6.13,20.97-9.19,36.62-9.19h21.69v-12.29c0-7.73-2.38-13.81-7.15-18.24
				c-4.76-4.43-11.71-6.64-20.83-6.64c-8.33,0-15.22,2.13-20.69,6.4c-5.46,4.26-8.19,9.39-8.19,15.39l-11.99-0.1
				c0-8.59,4-16.04,11.99-22.33c7.99-6.3,17.82-9.44,29.48-9.44c12.06,0,21.57,3.02,28.53,9.04c6.96,6.03,10.54,14.44,10.74,25.23
				v51.17c0,10.46,1.1,18.29,3.3,23.48v1.2H689.15z M651.57,783.79c8,0,15.14-1.93,21.44-5.8c6.3-3.86,10.87-9.03,13.74-15.49
				v-23.78h-21.39c-11.93,0.13-21.25,2.31-27.98,6.55c-6.73,4.23-10.09,10.04-10.09,17.44c0,6.06,2.25,11.09,6.74,15.09
				C638.53,781.79,644.38,783.79,651.57,783.79z"/>
		</g>
		<g>
			<path class="st6" d="M728.3,793.93V681.9h36.09c9.9,0,18.8,2.24,26.7,6.73c7.9,4.49,14.07,10.83,18.51,19.01
				c4.44,8.18,6.68,17.35,6.73,27.51v5.15c0,10.26-2.17,19.46-6.5,27.59c-4.33,8.13-10.44,14.49-18.31,19.08
				c-7.87,4.59-16.66,6.91-26.35,6.96H728.3z M755.31,702.75v70.41h9.39c7.74,0,13.69-2.76,17.85-8.27
				c4.15-5.51,6.23-13.71,6.23-24.58v-4.85c0-10.82-2.08-18.98-6.23-24.47c-4.16-5.49-10.21-8.23-18.16-8.23H755.31z"/>
			<path class="st6" d="M925.05,740.22c0,10.93-2.03,20.59-6.08,29.01c-4.05,8.41-9.81,14.89-17.27,19.43
				c-7.46,4.54-15.97,6.81-25.51,6.81c-9.54,0-18-2.19-25.39-6.58c-7.39-4.39-13.15-10.66-17.27-18.81
				c-4.13-8.16-6.3-17.52-6.5-28.09v-6.31c0-10.98,2.01-20.66,6.04-29.05c4.03-8.39,9.8-14.86,17.31-19.43s16.07-6.85,25.66-6.85
				c9.49,0,17.95,2.26,25.39,6.77c7.44,4.51,13.22,10.94,17.35,19.28c4.13,8.34,6.22,17.89,6.27,28.66V740.22z M897.58,735.53
				c0-11.13-1.86-19.58-5.58-25.35c-3.72-5.77-9.04-8.66-15.97-8.66c-13.54,0-20.7,10.16-21.47,30.47l-0.08,8.23
				c0,10.98,1.82,19.41,5.46,25.32c3.64,5.9,9.05,8.85,16.24,8.85c6.82,0,12.08-2.9,15.77-8.69c3.69-5.8,5.56-14.13,5.62-25.01
				V735.53z"/>
			<path class="st6" d="M996.76,764.15c0-3.95-1.4-7.03-4.19-9.23c-2.8-2.2-7.71-4.49-14.74-6.85c-7.03-2.36-12.77-4.64-17.24-6.85
				c-14.52-7.13-21.78-16.93-21.78-29.39c0-6.21,1.81-11.68,5.42-16.43c3.62-4.74,8.74-8.44,15.35-11.08
				c6.62-2.64,14.05-3.96,22.31-3.96c8.05,0,15.27,1.44,21.66,4.31c6.39,2.87,11.35,6.96,14.89,12.27
				c3.54,5.31,5.31,11.38,5.31,18.2h-26.93c0-4.56-1.4-8.11-4.19-10.62c-2.8-2.51-6.58-3.77-11.35-3.77
				c-4.82,0-8.63,1.07-11.43,3.19c-2.8,2.13-4.19,4.83-4.19,8.12c0,2.87,1.54,5.48,4.62,7.81c3.08,2.33,8.49,4.75,16.24,7.23
				c7.74,2.49,14.11,5.17,19.08,8.04c12.11,6.98,18.16,16.59,18.16,28.85c0,9.8-3.69,17.49-11.08,23.09
				c-7.39,5.59-17.52,8.39-30.39,8.39c-9.08,0-17.3-1.63-24.66-4.88s-12.9-7.72-16.62-13.39c-3.72-5.67-5.58-12.2-5.58-19.58h27.08
				c0,6,1.55,10.43,4.65,13.27c3.1,2.85,8.14,4.27,15.12,4.27c4.46,0,7.99-0.96,10.58-2.89
				C995.46,770.35,996.76,767.64,996.76,764.15z"/>
		</g>
	</g>
	<g>
		<path class="st7" d="M843.75,541.7c1.28-2,2.52-4.03,3.72-6.11l151.33-262.11c41.79-72.38,16.99-164.93-55.39-206.72
			s-164.93-16.99-206.72,55.39L585.36,384.27c-1.2,2.08-2.34,4.17-3.43,6.28l109.32,112.97L843.75,541.7"/>
		<g>
			<polygon class="st8" points="617.36,396.5 571.8,408.7 572.59,407.32 572.73,407.06 572.76,407.04 605.17,350.94 			"/>
			
				<rect x="623.7" y="388.45" transform="matrix(0.2588 0.9659 -0.9659 0.2588 884.748 -320.7642)" class="st8" width="55.37" height="55.37"/>
			
				<rect x="691.63" y="427.66" transform="matrix(0.2588 0.9659 -0.9659 0.2588 972.9684 -357.3062)" class="st8" width="55.37" height="55.37"/>
			
				<rect x="759.55" y="466.88" transform="matrix(0.2588 0.9659 -0.9659 0.2588 1061.1888 -393.8481)" class="st8" width="55.37" height="55.37"/>
			<polygon class="st8" points="866.84,501.97 834.25,558.4 833.99,558.89 833.48,559.81 821.26,514.19 			"/>
			<polygon class="st6" points="670.9,382.2 617.43,396.52 605.19,350.89 605.68,350.05 605.7,350 605.96,349.56 605.98,349.49 
				610.91,340.93 656.57,328.71 			"/>
			
				<rect x="677.24" y="374.15" transform="matrix(0.2588 0.9659 -0.9659 0.2588 910.6143 -383.0718)" class="st6" width="55.37" height="55.37"/>
			
				<rect x="745.16" y="413.36" transform="matrix(0.2588 0.9659 -0.9659 0.2588 998.8347 -419.6138)" class="st6" width="55.37" height="55.37"/>
			<polygon class="st6" points="872.57,492.02 867.8,500.27 867.78,500.34 867.66,500.53 867.64,500.62 866.89,501.9 821.19,514.17 
				806.86,460.69 860.35,446.36 			"/>
			<polygon class="st8" points="656.52,328.67 610.94,340.89 611.71,339.56 611.73,339.53 611.87,339.32 611.9,339.3 611.92,339.23 
				644.3,283.15 			"/>
			
				<rect x="662.85" y="320.64" transform="matrix(0.2588 0.9659 -0.9659 0.2588 848.266 -408.8396)" class="st8" width="55.37" height="55.37"/>
			
				<rect x="730.78" y="359.85" transform="matrix(0.2588 0.9659 -0.9659 0.2588 936.4864 -445.3816)" class="st8" width="55.37" height="55.37"/>
			
				<rect x="798.7" y="399.07" transform="matrix(0.2588 0.9659 -0.9659 0.2588 1024.7068 -481.9236)" class="st8" width="55.37" height="55.37"/>
			<polygon class="st8" points="905.98,434.19 873.41,490.62 873.36,490.66 873.13,491.06 873.11,491.11 872.61,491.97 
				860.39,446.39 			"/>
		</g>
		<path class="st9" d="M443.17,390.45c-1.09-2.11-2.23-4.2-3.43-6.27L288.41,122.07C246.62,49.69,154.07,24.89,81.69,66.68
			S-15.48,201.02,26.3,273.4L177.63,535.5c1.2,2.08,2.44,4.12,3.72,6.11l152.5-38.19L443.17,390.45"/>
		<g>
			<polygon class="st10" points="206.04,518.98 193.98,563.96 161.08,506.95 			"/>
			
				<rect x="212.38" y="471.67" transform="matrix(0.9659 0.2588 -0.2588 0.9659 137.4216 -45.1178)" class="st10" width="55.37" height="55.37"/>
			
				<rect x="280.3" y="432.45" transform="matrix(0.9659 0.2588 -0.2588 0.9659 129.5865 -64.0334)" class="st10" width="55.37" height="55.37"/>
			
				<rect x="348.22" y="393.24" transform="matrix(0.9659 0.2588 -0.2588 0.9659 121.7514 -82.9491)" class="st10" width="55.37" height="55.37"/>
			<polygon class="st10" points="456.1,413.65 409.93,401.29 422.29,355.12 422.41,355.31 422.46,355.37 455.82,413.18 			"/>
			<polygon class="st11" points="220.43,465.48 206.11,518.96 161.06,506.9 160.8,506.46 160.76,506.41 155.03,496.48 
				155.01,496.44 154.89,496.23 154.89,496.2 166.95,451.15 			"/>
			
				<rect x="226.76" y="418.16" transform="matrix(0.9659 0.2588 -0.2588 0.9659 124.062 -50.6639)" class="st11" width="55.37" height="55.37"/>
			
				<rect x="294.68" y="378.94" transform="matrix(0.9659 0.2588 -0.2588 0.9659 116.2269 -69.5795)" class="st11" width="55.37" height="55.37"/>
			<polygon class="st11" points="422.25,355.05 409.86,401.31 356.38,386.99 370.72,333.5 416.97,345.89 			"/>
			<polygon class="st10" points="166.9,451.18 154.84,496.13 121.92,439.12 			"/>
			
				<rect x="173.23" y="403.86" transform="matrix(0.9659 0.2588 -0.2588 0.9659 118.537 -37.2956)" class="st10" width="55.37" height="55.37"/>
			
				<rect x="241.15" y="364.64" transform="matrix(0.9659 0.2588 -0.2588 0.9659 110.702 -56.2112)" class="st10" width="55.37" height="55.37"/>
			
				<rect x="309.07" y="325.43" transform="matrix(0.9659 0.2588 -0.2588 0.9659 102.8669 -75.1268)" class="st10" width="55.37" height="55.37"/>
			<polygon class="st10" points="416.94,345.84 370.77,333.48 383.13,287.31 383.29,287.57 416.69,345.37 416.71,345.44 			"/>
		</g>
		<g>
			<path class="st1" d="M97.52,402.58c-2.02,0-3.98-1.05-5.06-2.92L21.25,276.32C0.26,239.96-5.32,197.6,5.54,157.05
				c10.87-40.55,36.87-74.44,73.23-95.43c75.05-43.33,171.36-17.53,214.7,57.53l71.21,123.34c1.61,2.79,0.66,6.37-2.14,7.98
				c-2.8,1.61-6.37,0.65-7.98-2.14l-71.21-123.34C243.24,55.52,154.09,31.63,84.62,71.74c-33.66,19.43-57.73,50.8-67.79,88.34
				c-10.06,37.54-4.9,76.74,14.53,110.4l71.21,123.34c1.61,2.79,0.66,6.37-2.14,7.98C99.52,402.33,98.51,402.58,97.52,402.58z"/>
		</g>
		<g>
			<path class="st13" d="M199.88,332.27c-57.8,0-114.96-31.75-142.24-79c-15.24-26.4-19.29-57.16-11.4-86.61
				c7.89-29.45,26.78-54.06,53.18-69.31c17.35-10.02,37.04-15.31,56.96-15.31c40.71,0,78.63,21.87,98.96,57.09
				c15.8,27.37,22.42,61.63,18.64,96.48c-3.85,35.43-18.39,68.41-41,93.06c-10.74,2.39-21.86,3.6-33.08,3.6
				C199.89,332.27,199.89,332.27,199.88,332.27z"/>
			<g>
				<path class="st1" d="M156.37,87.88c38.63,0,74.61,20.76,93.9,54.17c15.19,26.3,21.54,59.3,17.89,92.92
					c-3.64,33.55-17.19,64.79-38.26,88.38c-9.76,2.04-19.84,3.07-30.02,3.07c-55.78,0-110.91-30.57-137.18-76.08
					c-29.86-51.71-12.08-118.08,39.64-147.94C118.8,92.91,137.49,87.88,156.37,87.88 M156.37,76.2c-20.36,0-40.98,5.18-59.88,16.09
					c-57.38,33.13-77.05,106.51-43.92,163.89c27.66,47.91,86.42,81.92,147.3,81.92c12.04,0,24.16-1.33,36.14-4.15
					c51.05-54.32,57.5-140.37,24.37-197.75C238.17,97.72,197.84,76.2,156.37,76.2L156.37,76.2z"/>
			</g>
		</g>
		<g>
			<path class="st1" d="M173.48,264.64c-2.04,0-4.05-1.07-5.17-2.89l0,0c0-0.01-0.03-0.04-0.07-0.12c0-0.01-0.01-0.02-0.01-0.02
				c0-0.01-0.01-0.02-0.01-0.03c-0.64-1.11-5.02-8.7-29.79-51.59c-29.84-51.69-86.1-24.62-88.48-23.45
				c-2.89,1.43-6.39,0.25-7.83-2.64c-1.43-2.89-0.26-6.39,2.62-7.82c0.68-0.34,68.43-33.2,103.8,28.07l26.88,46.56l22.93-13.24
				c2.79-1.62,6.37-0.66,7.98,2.14c1.61,2.79,0.66,6.37-2.14,7.98l-26.79,15.47c-0.33,0.32-0.71,0.61-1.12,0.84
				C175.41,264.41,174.44,264.64,173.48,264.64z"/>
		</g>
		<g>
			<path class="st1" d="M200.11,175.09c-6.51,0-13-1.91-18.68-5.71c-2.68-1.79-3.4-5.42-1.61-8.1c1.79-2.68,5.42-3.4,8.1-1.61
				c7,4.68,15.88,4.97,23.17,0.76c7.31-4.22,11.49-12.07,10.92-20.5c-0.22-3.22,2.21-6.01,5.43-6.22c3.24-0.22,6.01,2.21,6.22,5.43
				c0.88,12.91-5.54,24.95-16.74,31.41C211.68,173.58,205.89,175.09,200.11,175.09z"/>
		</g>
		<g>
			<path class="st1" d="M85.63,241.18c-6.53,0-13.04-1.93-18.74-5.76c-2.68-1.8-3.39-5.43-1.59-8.11c1.8-2.68,5.43-3.39,8.11-1.59
				c7.01,4.71,15.9,5.01,23.21,0.79c7.29-4.21,11.48-12.04,10.92-20.45c-0.21-3.22,2.23-6,5.45-6.21c3.23-0.18,6,2.23,6.21,5.45
				c0.85,12.88-5.57,24.88-16.74,31.33C97.2,239.67,91.41,241.18,85.63,241.18z"/>
		</g>
		<g>
			<path class="st1" d="M199.46,298.06c-5.32,0-10.63-1.57-15.27-4.69c-2.68-1.8-3.39-5.43-1.59-8.11c1.8-2.68,5.43-3.39,8.11-1.59
				c5.02,3.37,11.39,3.59,16.63,0.57c5.22-3.01,8.22-8.63,7.82-14.65c-0.21-3.22,2.23-6,5.45-6.21c3.23-0.18,6,2.23,6.21,5.45
				c0.69,10.49-4.54,20.28-13.64,25.53C208.89,296.83,204.17,298.06,199.46,298.06z"/>
		</g>
		<g>
			<path class="st14" d="M442.39,390.89c-1.09-2.11-2.23-4.2-3.43-6.27l-1.96-3.4"/>
			<path class="st1" d="M442.4,396.73c-2.11,0-4.16-1.15-5.19-3.16c-1.05-2.03-2.16-4.06-3.3-6.03l-1.96-3.4
				c-1.61-2.79-0.65-6.37,2.14-7.98c2.79-1.62,6.37-0.66,7.98,2.14l1.96,3.4c1.23,2.13,2.43,4.32,3.56,6.51
				c1.48,2.87,0.36,6.39-2.51,7.87C444.22,396.53,443.3,396.73,442.4,396.73z"/>
		</g>
		<g>
			<path class="st14" d="M182.39,541c-1.09-2.11-2.23-4.2-3.43-6.27l-1.96-3.4"/>
			<path class="st1" d="M183.21,548.69c-2.12,0-4.16-1.15-5.19-3.16c-1.04-2.01-2.15-4.04-3.3-6.03l-1.96-3.4
				c-1.61-2.79-0.66-6.37,2.14-7.98c2.79-1.62,6.37-0.65,7.98,2.14l1.96,3.4c1.24,2.15,2.44,4.34,3.56,6.51
				c1.48,2.87,0.36,6.39-2.51,7.87C185.03,548.47,184.12,548.69,183.21,548.69z"/>
		</g>
		<g>
			<path class="st13" d="M295.59,518.24c-28.98,0-55.96-15.57-70.43-40.63c-7.06-12.22-10.82-26.11-10.89-40.17
				c-0.14-28.11,13.9-53.88,37.57-68.93c1.06-0.7,2.05-1.29,3.05-1.87c1-0.58,2.02-1.15,3.03-1.65c11.63-6.07,24.57-9.25,37.52-9.25
				c14.43,0,28.64,3.84,41.09,11.12c12.12,7.07,22.25,17.27,29.32,29.51c10.85,18.79,13.73,40.68,8.12,61.63
				c-5.61,20.96-19.06,38.48-37.85,49.33C323.77,514.47,309.76,518.24,295.59,518.24z"/>
			<g>
				<path class="st1" d="M295.44,361.59L295.44,361.59c13.39,0,26.58,3.57,38.15,10.33c11.24,6.56,20.64,16.03,27.2,27.38
					c20.78,36,8.41,82.2-27.59,102.98c-11.46,6.62-24.46,10.11-37.61,10.11c-26.89,0-51.94-14.45-65.37-37.71
					c-6.55-11.35-10.04-24.23-10.11-37.28c-0.13-26.09,12.9-50,34.87-63.96c0.07-0.04,0.13-0.08,0.19-0.13
					c0.7-0.47,1.52-0.96,2.64-1.61c1.13-0.65,1.97-1.11,2.71-1.47c0.07-0.04,0.15-0.07,0.22-0.11
					C271.42,364.54,283.42,361.59,295.44,361.59 M295.44,349.91c-13.58,0-27.33,3.18-40.11,9.85c-1.13,0.56-2.26,1.19-3.36,1.82
					c-1.1,0.64-2.2,1.29-3.26,2c-26.01,16.53-40.43,44.85-40.28,73.88c0.07,14.65,3.83,29.48,11.67,43.06
					c16.13,27.93,45.4,43.55,75.49,43.55c14.77,0,29.74-3.76,43.45-11.68c41.66-24.05,55.91-77.3,31.87-118.94
					c-7.84-13.58-18.78-24.25-31.43-31.63C326.13,354.03,310.9,349.91,295.44,349.91L295.44,349.91z"/>
			</g>
		</g>
		<path class="st1" d="M295.42,361.6L295.42,361.6c13.39,0,26.58,3.57,38.15,10.33c11.24,6.56,20.64,16.03,27.2,27.38
			c20.78,36,8.41,82.2-27.59,102.98c-11.46,6.62-24.46,10.11-37.61,10.11c-26.89,0-51.94-14.45-65.37-37.71
			c-6.55-11.35-10.04-24.23-10.11-37.28c-0.13-26.09,12.9-50,34.87-63.96c0.07-0.04,0.13-0.08,0.2-0.13
			c0.7-0.47,1.52-0.96,2.64-1.61c1.13-0.65,1.97-1.11,2.71-1.47c0.07-0.04,0.15-0.07,0.22-0.11
			C271.41,364.55,283.41,361.6,295.42,361.6 M295.42,349.92c-13.58,0-27.33,3.18-40.11,9.85c-1.13,0.56-2.26,1.19-3.36,1.82
			c-1.1,0.64-2.2,1.29-3.26,2c-26.01,16.53-40.43,44.85-40.28,73.88c0.07,14.65,3.83,29.48,11.67,43.06
			c16.13,27.93,45.4,43.55,75.49,43.55c14.77,0,29.74-3.76,43.45-11.68c41.66-24.05,55.91-77.3,31.87-118.94
			c-7.84-13.58-18.78-24.25-31.43-31.63C326.12,354.04,310.88,349.92,295.42,349.92L295.42,349.92z"/>
		<g>
			<path class="st1" d="M214.42,431.97c1.58-25.96,15.3-49.39,37.42-63.46c0.48-0.32,0.95-0.62,1.41-0.9
				c2.48,4.73,4.05,9.78,4.67,15.04c2.12,17.54-6.39,34.58-21.68,43.41C229.59,429.91,222.05,431.95,214.42,431.97z"/>
			<g>
				<path class="st1" d="M250.63,376.43c0.72,2.26,1.22,4.57,1.5,6.94c1.84,15.21-5.55,29.98-18.81,37.64
					c-3.85,2.22-8.03,3.75-12.35,4.53C223.95,405.9,234.5,388.31,250.63,376.43 M255.33,359.77c-1.13,0.56-2.26,1.19-3.36,1.82
					c-1.1,0.64-2.2,1.29-3.26,2c-26.01,16.53-40.43,44.85-40.28,73.88c1.94,0.23,3.89,0.34,5.85,0.34c8.46,0,17.04-2.16,24.89-6.69
					c17.84-10.3,26.89-29.93,24.56-49.16c-0.77-6.47-2.85-12.9-6.32-18.91C256.75,361.91,256.05,360.82,255.33,359.77L255.33,359.77
					z"/>
			</g>
		</g>
		<g>
			<path class="st1" d="M293.71,386.11c-9.5,0-18.9-3.13-26.48-8.82c-4.24-3.18-7.83-7.06-10.69-11.57
				c0.46-0.25,0.92-0.49,1.38-0.72c11.63-6.07,24.57-9.25,37.52-9.25c12.6,0,25.03,2.93,36.27,8.52
				c-3.84,6.6-9.31,12.04-16.03,15.93C308.99,384.06,301.39,386.11,293.71,386.11z"/>
			<g>
				<path class="st1" d="M295.44,361.59L295.44,361.59c9.4,0,18.7,1.76,27.41,5.14c-2.82,3.33-6.21,6.17-10.09,8.4
					c-5.81,3.35-12.4,5.13-19.05,5.13c-8.24,0-16.4-2.72-22.98-7.66c-1.9-1.42-3.65-3.01-5.24-4.76
					C274.92,363.75,285.18,361.59,295.44,361.59 M295.44,349.91c-13.58,0-27.33,3.18-40.11,9.85c-1.13,0.56-2.26,1.19-3.36,1.82
					c-1.1,0.64-2.2,1.29-3.26,2c0.55,1.15,1.15,2.3,1.8,3.44c3.47,6.01,8,11.03,13.22,14.93c8.67,6.51,19.23,9.99,29.98,9.99
					c8.46,0,17.03-2.16,24.89-6.69c9.67-5.58,16.77-13.91,20.88-23.43C326.13,354.04,310.9,349.91,295.44,349.91L295.44,349.91z"/>
			</g>
		</g>
		<g>
			<path class="st1" d="M314.24,423.33c-4.38,0-8.74-1.29-12.56-3.86c-2.68-1.8-3.39-5.43-1.59-8.11c1.8-2.68,5.43-3.4,8.11-1.59
				c3.47,2.33,7.86,2.48,11.48,0.39c3.61-2.08,5.68-5.96,5.4-10.12c-0.21-3.22,2.23-6,5.45-6.21c3.2-0.18,6,2.23,6.21,5.45
				c0.57,8.63-3.73,16.68-11.22,21C321.99,422.32,318.11,423.33,314.24,423.33z"/>
		</g>
		<g>
			<path class="st1" d="M254.77,457.66c-4.38,0-8.74-1.29-12.56-3.86c-2.68-1.8-3.39-5.43-1.59-8.11c1.8-2.68,5.43-3.39,8.11-1.59
				c3.47,2.33,7.87,2.48,11.48,0.39c3.6-2.08,5.67-5.96,5.4-10.11c-0.21-3.22,2.23-6,5.45-6.21c3.22-0.18,6,2.23,6.21,5.45
				c0.57,8.63-3.73,16.67-11.22,21C262.53,456.65,258.64,457.66,254.77,457.66z"/>
		</g>
		<g>
			<g>
				<path class="st2" d="M180.87,518.09c-4.31,0-8.59-1.12-12.39-3.24c-7.09-3.97-11.84-11.12-12.83-19.09
					c3.31-1.51,6.92-2.3,10.58-2.3c4.32,0,8.6,1.12,12.41,3.25c7.08,3.97,11.82,11.11,12.82,19.08
					C188.14,517.3,184.53,518.09,180.87,518.09C180.87,518.09,180.87,518.09,180.87,518.09z"/>
				<g>
					<path class="st1" d="M166.23,498.13c3.52,0,7.02,0.92,10.12,2.66c4.69,2.62,8.12,6.96,9.68,11.98
						c-1.68,0.43-3.42,0.65-5.16,0.65c-3.51,0-7.01-0.92-10.1-2.65c-4.7-2.63-8.13-6.97-9.7-11.98
						C162.75,498.35,164.48,498.13,166.23,498.13 M166.23,488.79c-5.43,0-10.77,1.47-15.44,4.25c0.14,10.41,5.68,20.44,15.41,25.89
						c4.65,2.6,9.69,3.84,14.67,3.84c5.43,0,10.78-1.47,15.44-4.25c-0.14-10.41-5.68-20.44-15.4-25.88
						C176.26,490.02,171.21,488.79,166.23,488.79L166.23,488.79z"/>
				</g>
			</g>
			<g>
				<line class="st15" x1="206.18" y1="527.9" x2="124.34" y2="386.14"/>
				
					<rect x="160.58" y="375.18" transform="matrix(0.866 -0.5 0.5 0.866 -206.3705 143.8578)" class="st1" width="9.35" height="163.68"/>
			</g>
			<g>
				<path class="st2" d="M137.37,442.74c-4.31,0-8.59-1.12-12.39-3.24c-7.09-3.97-11.84-11.12-12.83-19.09
					c3.31-1.51,6.92-2.3,10.58-2.3c4.31,0,8.6,1.12,12.4,3.25c7.08,3.96,11.82,11.11,12.82,19.08
					C144.64,441.95,141.03,442.74,137.37,442.74L137.37,442.74z"/>
				<g>
					<path class="st1" d="M122.73,422.78c3.52,0,7.02,0.92,10.12,2.66c4.69,2.62,8.12,6.96,9.68,11.98
						c-1.68,0.43-3.42,0.65-5.16,0.65c-3.51,0-7.01-0.92-10.1-2.65c-4.7-2.63-8.13-6.97-9.7-11.98
						C119.25,423,120.98,422.78,122.73,422.78 M122.73,413.44c-5.43,0-10.77,1.47-15.44,4.25c0.14,10.41,5.68,20.44,15.41,25.89
						c4.65,2.6,9.69,3.84,14.67,3.84c5.43,0,10.78-1.47,15.44-4.25c-0.14-10.41-5.68-20.44-15.4-25.88
						C132.76,414.68,127.71,413.44,122.73,413.44L122.73,413.44z"/>
				</g>
			</g>
			<g>
				<path class="st2" d="M159.55,433.75c-6.41-4.85-10.22-12.53-10.11-20.64c0.11-8.13,4.13-15.7,10.67-20.38
					c6.41,4.85,10.22,12.53,10.11,20.66C170.11,421.5,166.08,429.07,159.55,433.75z"/>
				<g>
					<path class="st1" d="M160.02,398.94c3.56,3.86,5.6,9,5.53,14.38c-0.07,5.37-2.25,10.45-5.91,14.22c-3.56-3.86-5.6-9-5.53-14.37
						C154.18,407.79,156.35,402.7,160.02,398.94 M160.18,387.15c-9.08,5.08-15.26,14.73-15.41,25.89
						c-0.15,11.14,5.77,20.95,14.71,26.28c9.08-5.08,15.26-14.73,15.41-25.87C175.04,402.29,169.12,392.48,160.18,387.15
						L160.18,387.15z"/>
				</g>
			</g>
			<g>
				<path class="st2" d="M203.05,509.09c-6.41-4.84-10.22-12.52-10.11-20.64c0.11-8.12,4.13-15.7,10.66-20.38
					c6.41,4.85,10.22,12.53,10.11,20.66C213.61,496.85,209.59,504.42,203.05,509.09z"/>
				<g>
					<path class="st1" d="M203.52,474.28c3.56,3.86,5.6,9,5.53,14.38c-0.07,5.37-2.25,10.45-5.91,14.22c-3.56-3.86-5.6-9-5.53-14.37
						C197.68,483.13,199.86,478.05,203.52,474.28 M203.68,462.5c-9.08,5.08-15.26,14.73-15.41,25.89
						c-0.15,11.14,5.77,20.95,14.71,26.28c9.08-5.08,15.26-14.73,15.41-25.87C218.54,477.63,212.62,467.83,203.68,462.5
						L203.68,462.5z"/>
				</g>
			</g>
			<g>
				<path class="st2" d="M159.12,480.41c-4.31,0-8.59-1.12-12.39-3.24c-7.09-3.97-11.84-11.12-12.83-19.09
					c3.31-1.51,6.92-2.3,10.58-2.3c4.31,0,8.6,1.12,12.41,3.25c7.08,3.97,11.82,11.11,12.82,19.08
					C166.39,479.63,162.78,480.41,159.12,480.41L159.12,480.41z"/>
				<g>
					<path class="st1" d="M144.48,460.46c3.52,0,7.02,0.92,10.12,2.66c4.69,2.62,8.12,6.96,9.68,11.98
						c-1.68,0.43-3.42,0.65-5.16,0.65c-3.51,0-7.01-0.92-10.1-2.65c-4.7-2.63-8.13-6.97-9.7-11.98
						C141,460.68,142.73,460.46,144.48,460.46 M144.48,451.11c-5.43,0-10.77,1.47-15.44,4.25c0.14,10.41,5.68,20.44,15.41,25.89
						c4.65,2.6,9.69,3.84,14.67,3.84c5.43,0,10.78-1.47,15.44-4.25c-0.14-10.41-5.68-20.44-15.4-25.88
						C154.51,452.35,149.46,451.11,144.48,451.11L144.48,451.11z"/>
				</g>
			</g>
			<g>
				<path class="st2" d="M181.3,471.42c-6.41-4.84-10.22-12.52-10.11-20.64c0.11-8.13,4.13-15.71,10.66-20.38
					c6.41,4.85,10.22,12.53,10.11,20.66C191.86,459.17,187.84,466.75,181.3,471.42z"/>
				<g>
					<path class="st1" d="M181.77,436.61c3.56,3.86,5.6,9,5.53,14.38c-0.07,5.37-2.25,10.45-5.91,14.22c-3.56-3.86-5.6-9-5.53-14.37
						C175.93,445.46,178.11,440.38,181.77,436.61 M181.93,424.83c-9.08,5.08-15.26,14.73-15.41,25.89
						c-0.15,11.14,5.77,20.95,14.71,26.28c9.08-5.08,15.26-14.73,15.41-25.87C196.79,439.96,190.87,430.15,181.93,424.83
						L181.93,424.83z"/>
				</g>
			</g>
			<g>
				<path class="st2" d="M132.9,400.97c-5.12-0.66-9.73-3.67-12.34-8.2c-2.61-4.53-2.93-10.03-0.93-14.79
					c5.12,0.66,9.73,3.68,12.34,8.21C134.58,390.71,134.89,396.21,132.9,400.97z"/>
				<g>
					<path class="st1" d="M122.03,382.15c2.86,1.05,5.33,3.07,6.9,5.79c1.56,2.71,2.08,5.86,1.56,8.86
						c-2.86-1.05-5.33-3.07-6.89-5.78C122.03,388.31,121.51,385.16,122.03,382.15 M117.52,374.34c-3.48,6.04-3.74,13.71,0,20.18
						c3.73,6.47,10.5,10.08,17.47,10.08c3.48-6.04,3.74-13.71,0-20.18C131.26,377.96,124.49,374.34,117.52,374.34L117.52,374.34z"/>
				</g>
			</g>
		</g>
		<g>
			<path class="st1" d="M927.58,402.67c-0.99,0-2-0.25-2.92-0.78c-2.79-1.61-3.75-5.19-2.14-7.98l71.21-123.34
				c40.11-69.47,16.22-158.63-53.25-198.74c-69.47-40.1-158.63-16.22-198.74,53.25l-71.21,123.34c-1.61,2.8-5.19,3.75-7.98,2.14
				c-2.79-1.61-3.75-5.19-2.14-7.98l71.21-123.34c43.33-75.05,139.64-100.86,214.7-57.53c75.05,43.33,100.86,139.64,57.53,214.7
				l-71.21,123.34C931.56,401.62,929.59,402.67,927.58,402.67z"/>
		</g>
		<g>
			<path class="st16" d="M825.24,332.37c-11.23,0-22.35-1.21-33.09-3.6c-22.61-24.66-37.15-57.63-41-93.06
				c-3.78-34.84,2.84-69.11,18.64-96.48c20.33-35.21,58.25-57.09,98.96-57.09c19.91,0,39.61,5.29,56.95,15.31
				c54.5,31.47,73.24,101.41,41.78,155.92C940.2,300.62,883.03,332.37,825.24,332.37C825.23,332.37,825.24,332.37,825.24,332.37z"/>
			<g>
				<path class="st1" d="M868.74,87.99c18.89,0,37.57,5.02,54.03,14.53c51.71,29.86,69.5,96.22,39.64,147.94
					c-26.27,45.5-81.4,76.08-137.18,76.08c-10.17,0-20.25-1.03-30.02-3.07c-21.07-23.59-34.62-54.83-38.26-88.38
					c-3.65-33.62,2.7-66.62,17.89-92.92C794.13,108.74,830.11,87.99,868.74,87.99 M868.74,76.3c-41.47,0-81.8,21.52-104.02,60.01
					c-33.13,57.39-26.68,143.43,24.37,197.75c11.98,2.82,24.1,4.15,36.14,4.15c60.88,0,119.64-34.01,147.3-81.92
					c33.13-57.38,13.47-130.76-43.92-163.89C909.73,81.49,889.1,76.3,868.74,76.3L868.74,76.3z"/>
			</g>
		</g>
		<g>
			<path class="st1" d="M850.89,264.09c-0.99,0-2-0.25-2.92-0.78l-26.79-15.47c-0.44-0.12-0.87-0.3-1.28-0.54
				c-1.73-1-4.12-3.31-2.06-7.95l-0.07-0.04c0.1-0.17,0.21-0.33,0.32-0.49c0.14-0.28,0.29-0.56,0.46-0.86l29.1-50.41
				c12.47-21.6,12.4-42.86-0.19-63.19c-9.73-15.71-23.6-25.06-23.74-25.16c-2.68-1.79-3.41-5.41-1.63-8.1
				c1.78-2.68,5.4-3.42,8.09-1.64c0.63,0.42,62.97,42.66,27.59,103.93c-15.88,27.5-23.38,40.49-26.88,46.56l22.93,13.24
				c2.79,1.61,3.75,5.19,2.14,7.98C854.88,263.05,852.91,264.09,850.89,264.09z"/>
		</g>
		<g>
			<path class="st1" d="M937.9,240.36c-5.78,0-11.57-1.51-16.83-4.54c-11.17-6.45-17.59-18.45-16.74-31.33
				c0.21-3.22,3.03-5.66,6.21-5.45c3.22,0.21,5.66,2.99,5.44,6.21c-0.55,8.41,3.64,16.24,10.93,20.45
				c7.31,4.22,16.2,3.92,23.21-0.79c2.68-1.8,6.31-1.09,8.11,1.59c1.8,2.68,1.09,6.31-1.59,8.11
				C950.94,238.44,944.43,240.36,937.9,240.36z"/>
		</g>
		<g>
			<path class="st1" d="M823.42,174.27c-5.78,0-11.57-1.51-16.82-4.54c-11.2-6.47-17.61-18.5-16.74-31.41
				c0.22-3.22,2.99-5.65,6.22-5.43c3.22,0.22,5.65,3.01,5.43,6.22c-0.57,8.43,3.61,16.28,10.92,20.5
				c7.29,4.21,16.17,3.91,23.17-0.76c2.68-1.79,6.31-1.07,8.1,1.61c1.79,2.68,1.07,6.31-1.61,8.1
				C836.42,172.36,829.93,174.27,823.42,174.27z"/>
		</g>
		<g>
			<path class="st1" d="M825.67,298.17c-4.71,0-9.43-1.23-13.71-3.7c-9.13-5.27-14.35-15.07-13.64-25.59
				c0.22-3.22,3.05-5.65,6.22-5.43c3.22,0.22,5.65,3,5.43,6.22c-0.41,6.04,2.59,11.66,7.82,14.68c5.22,3.01,11.58,2.81,16.6-0.55
				c2.68-1.79,6.31-1.07,8.1,1.61c1.79,2.68,1.07,6.31-1.61,8.1C836.26,296.62,830.97,298.17,825.67,298.17z"/>
		</g>
		<g>
			<path class="st14" d="M842.98,541.25c1.28-2,2.52-4.03,3.72-6.11l1.96-3.4"/>
			<path class="st1" d="M842.97,547.09c-1.08,0-2.17-0.3-3.15-0.93c-2.72-1.74-3.5-5.36-1.76-8.07c1.23-1.91,2.43-3.89,3.57-5.87
				l1.97-3.4c1.62-2.8,5.19-3.75,7.98-2.14c2.8,1.61,3.75,5.19,2.14,7.98l-1.96,3.4c-1.23,2.14-2.53,4.27-3.86,6.34
				C846.77,546.14,844.89,547.09,842.97,547.09z"/>
		</g>
		<g>
			<path class="st14" d="M582.97,391.14c1.28-2,2.52-4.03,3.72-6.11l1.96-3.4"/>
			<path class="st1" d="M582.97,396.98c-1.08,0-2.17-0.3-3.15-0.93c-2.72-1.74-3.5-5.35-1.76-8.07c1.23-1.92,2.43-3.9,3.58-5.87
				l1.96-3.4c1.61-2.79,5.18-3.76,7.98-2.14c2.8,1.61,3.75,5.18,2.14,7.98l-1.96,3.4c-1.23,2.14-2.53,4.27-3.86,6.34
				C586.78,396.03,584.89,396.98,582.97,396.98z"/>
		</g>
		<g>
			<path class="st16" d="M729.53,518.33c-14.17,0-28.19-3.77-40.54-10.9c-38.79-22.4-52.12-72.17-29.73-110.96
				c7.06-12.22,17.2-22.43,29.34-29.51c12.45-7.27,26.65-11.11,41.07-11.11c12.95,0,25.89,3.18,37.41,9.19
				c1.13,0.56,2.14,1.13,3.14,1.71c0.99,0.58,2,1.17,2.95,1.8c23.77,15.11,37.82,40.89,37.68,69.01
				c-0.07,14.03-3.83,27.91-10.9,40.14C785.48,502.76,758.49,518.33,729.53,518.33z"/>
			<g>
				<path class="st1" d="M729.67,350.01v11.68c12.01,0,24.01,2.95,34.7,8.53c0.07,0.04,0.14,0.07,0.21,0.11
					c0.76,0.38,1.59,0.83,2.72,1.48c1.13,0.65,1.94,1.15,2.63,1.61c0.07,0.04,0.13,0.09,0.2,0.13c21.97,13.96,35,37.89,34.87,64
					c-0.06,13.01-3.56,25.89-10.11,37.25c-13.43,23.26-38.48,37.71-65.36,37.71c-13.14,0-26.15-3.5-37.62-10.12
					c-17.44-10.07-29.91-26.32-35.12-45.78c-5.21-19.45-2.54-39.77,7.53-57.2c6.55-11.35,15.97-20.82,27.23-27.39
					c11.55-6.75,24.74-10.32,38.12-10.32L729.67,350.01 M729.67,350.01c-15.44,0-30.67,4.12-44.01,11.91
					c-12.65,7.38-23.61,18.06-31.46,31.64c-24.04,41.64-9.77,94.9,31.87,118.94c13.72,7.92,28.68,11.68,43.46,11.68
					c30.09,0,59.36-15.62,75.48-43.55c7.84-13.58,11.61-28.39,11.68-43.03c0.15-29.03-14.26-57.37-40.29-73.91
					c-1.05-0.7-2.16-1.36-3.26-2c-1.1-0.64-2.22-1.26-3.36-1.82C757,353.19,743.25,350.01,729.67,350.01L729.67,350.01z"/>
			</g>
		</g>
		<path class="st1" d="M729.66,350v11.68c12.01,0,24.01,2.95,34.7,8.53c0.07,0.04,0.14,0.07,0.21,0.11
			c0.76,0.38,1.59,0.83,2.71,1.48c1.13,0.65,1.94,1.15,2.63,1.61c0.07,0.04,0.14,0.09,0.2,0.13c21.97,13.96,35,37.89,34.87,63.99
			c-0.06,13.01-3.56,25.89-10.11,37.25c-13.43,23.26-38.48,37.71-65.36,37.71c-13.14,0-26.15-3.5-37.62-10.12
			c-36-20.78-48.38-66.98-27.59-102.98c6.55-11.35,15.97-20.82,27.23-27.39c11.55-6.75,24.74-10.32,38.12-10.32L729.66,350
			 M729.66,350c-15.44,0-30.67,4.12-44.01,11.91c-12.65,7.38-23.61,18.06-31.46,31.64c-24.04,41.64-9.77,94.9,31.87,118.94
			c13.72,7.92,28.68,11.68,43.46,11.68c30.09,0,59.36-15.62,75.48-43.55c7.84-13.58,11.61-28.39,11.68-43.03
			c0.15-29.03-14.26-57.37-40.29-73.91c-1.05-0.7-2.16-1.36-3.26-2c-1.1-0.64-2.22-1.26-3.36-1.82
			C756.98,353.18,743.24,350,729.66,350L729.66,350z"/>
		<g>
			<path class="st6" d="M731.39,386.21c-7.67,0-15.26-2.04-21.95-5.9c-6.73-3.89-12.2-9.34-16.03-15.94
				c11.24-5.58,23.67-8.52,36.26-8.52c12.95,0,25.89,3.18,37.41,9.19c0.52,0.26,1.01,0.52,1.48,0.77
				c-2.86,4.52-6.45,8.4-10.68,11.57C750.29,383.08,740.88,386.21,731.39,386.21z"/>
			<g>
				<path class="st1" d="M729.67,350.01v11.68c10.26,0,20.51,2.15,29.94,6.26c-1.59,1.75-3.35,3.34-5.25,4.77
					c-6.58,4.94-14.74,7.65-22.97,7.65c-6.64,0-13.22-1.77-19.03-5.12c-3.88-2.24-7.28-5.08-10.09-8.41c8.7-3.38,18-5.14,27.4-5.14
					L729.67,350.01 M729.67,350.01c-15.44,0-30.67,4.12-44.01,11.91c4.1,9.54,11.2,17.86,20.87,23.45
					c7.85,4.53,16.42,6.69,24.87,6.69c10.75,0,21.31-3.49,29.99-9.99c5.22-3.9,9.75-8.92,13.22-14.93c0.66-1.14,1.25-2.29,1.8-3.44
					c-1.05-0.7-2.16-1.36-3.26-2c-1.1-0.64-2.22-1.26-3.36-1.82C757,353.19,743.25,350.01,729.67,350.01L729.67,350.01z"/>
			</g>
		</g>
		<g>
			<path class="st6" d="M810.69,432.08c-7.63-0.03-15.16-2.08-21.81-5.92c-15.3-8.84-23.82-25.87-21.7-43.41
				c0.63-5.26,2.2-10.31,4.68-15.05c0.44,0.27,0.89,0.55,1.31,0.83C795.39,382.67,809.11,406.12,810.69,432.08z"/>
			<g>
				<path class="st1" d="M774.48,376.52c16.13,11.89,26.68,29.48,29.66,49.12c-4.32-0.78-8.5-2.31-12.34-4.53
					c-13.27-7.66-20.66-22.44-18.82-37.67C773.26,381.08,773.76,378.77,774.48,376.52 M769.78,359.86
					c-0.72,1.05-1.42,2.14-2.08,3.28c-3.47,6.01-5.55,12.44-6.32,18.91c-2.32,19.23,6.74,38.87,24.58,49.17
					c7.87,4.54,16.46,6.7,24.93,6.7c1.94,0,3.88-0.11,5.79-0.34c0.15-29.03-14.26-57.37-40.29-73.91c-1.05-0.7-2.16-1.36-3.26-2
					C772.04,361.05,770.92,360.43,769.78,359.86L769.78,359.86z"/>
			</g>
		</g>
		<g>
			<path class="st1" d="M770.36,457.77c-3.87,0-7.76-1.01-11.28-3.04c-7.51-4.33-11.8-12.4-11.22-21.05
				c0.22-3.22,3.05-5.64,6.22-5.43c3.22,0.22,5.65,3.01,5.43,6.22c-0.28,4.17,1.79,8.05,5.4,10.14c3.6,2.08,7.99,1.94,11.46-0.38
				c2.68-1.79,6.31-1.07,8.1,1.61c1.79,2.68,1.07,6.31-1.61,8.1C779.07,456.49,774.72,457.77,770.36,457.77z"/>
		</g>
		<g>
			<path class="st1" d="M710.89,423.44c-3.87,0-7.75-1.01-11.28-3.04c-7.51-4.33-11.8-12.4-11.22-21.05
				c0.22-3.22,3.04-5.65,6.22-5.43c3.22,0.22,5.65,3,5.43,6.22c-0.28,4.17,1.79,8.05,5.4,10.14c3.6,2.08,8,1.93,11.46-0.38
				c2.68-1.79,6.31-1.07,8.1,1.61c1.79,2.68,1.07,6.31-1.61,8.1C719.6,422.15,715.25,423.44,710.89,423.44z"/>
		</g>
		<g>
			<path class="st6" d="M663.1,466.97c0.11-2.37,0.17-4.75,0.17-7.15V157.17c0-83.58-67.75-151.33-151.33-151.33
				S360.61,73.59,360.61,157.17v302.66c0,2.4,0.06,4.78,0.17,7.16l151.16,43.18L663.1,466.97"/>
		</g>
		<g>
			<polygon class="st17" points="393.95,459.84 360.61,493.21 360.61,426.5 			"/>
			<polygon class="st17" points="472.39,459.84 433.26,499.01 394.09,459.84 433.26,420.71 			"/>
			<polygon class="st17" points="550.83,459.84 511.67,499.01 472.53,459.84 511.67,420.71 			"/>
			<polygon class="st17" points="629.25,459.84 590.11,499.01 550.95,459.84 590.11,420.71 			"/>
			<polygon class="st17" points="662.76,426.48 662.76,493.23 629.39,459.84 			"/>
			<polygon class="st18" points="433.19,420.71 394.02,459.84 360.61,426.43 360.61,414.98 394.02,381.55 			"/>
			<polygon class="st18" points="511.6,420.71 472.46,459.84 433.3,420.71 472.46,381.55 			"/>
			<polygon class="st18" points="590.04,420.71 550.88,459.84 511.74,420.71 550.88,381.55 			"/>
			<polygon class="st18" points="662.76,415.01 662.76,426.41 629.32,459.84 590.16,420.71 629.32,381.55 			"/>
			<polygon class="st17" points="393.95,381.55 360.61,414.91 360.61,348.2 			"/>
			<polygon class="st17" points="472.39,381.55 433.26,420.71 394.09,381.55 433.26,342.41 			"/>
			<polygon class="st17" points="550.83,381.55 511.67,420.71 472.53,381.55 511.67,342.41 			"/>
			<polygon class="st17" points="629.25,381.55 590.11,420.71 550.95,381.55 590.11,342.41 			"/>
			<polygon class="st17" points="662.76,348.18 662.76,414.94 629.39,381.55 			"/>
		</g>
		<g>
			<path class="st1" d="M663.27,305.43c-3.23,0-5.84-2.62-5.84-5.84V157.17c0-80.22-65.27-145.49-145.49-145.49
				c-80.22,0-145.49,65.26-145.49,145.49v142.42c0,3.23-2.62,5.84-5.84,5.84s-5.84-2.62-5.84-5.84V157.17
				C354.77,70.51,425.27,0,511.94,0c86.66,0,157.17,70.51,157.17,157.17v142.42C669.11,302.82,666.49,305.43,663.27,305.43z"/>
		</g>
		<g>
			<path class="st20" d="M511.95,308.37c-31.91-10.05-60.99-31.33-82.04-60.09c-20.7-28.28-32.1-61.27-32.1-92.87
				c0-62.94,51.2-114.14,114.14-114.14s114.14,51.2,114.14,114.14c0,31.6-11.4,64.58-32.1,92.87
				C572.94,277.04,543.86,298.32,511.95,308.37z"/>
			<g>
				<path class="st1" d="M511.95,47.11c59.71,0,108.3,48.58,108.3,108.3c0,30.37-11,62.13-30.97,89.42
					c-19.93,27.23-47.28,47.51-77.33,57.41c-30.04-9.89-57.4-30.17-77.33-57.41c-19.97-27.29-30.97-59.05-30.97-89.42
					C403.65,95.69,452.23,47.11,511.95,47.11 M511.95,35.43c-66.26,0-119.98,53.72-119.98,119.98
					c0,66.26,48.61,137.56,119.98,159.07c71.37-21.52,119.98-92.81,119.98-159.07C631.93,89.15,578.21,35.43,511.95,35.43
					L511.95,35.43z"/>
			</g>
		</g>
		<g>
			<path class="st1" d="M577.12,163.41c-12.9,0-24.46-7.19-30.16-18.76c-1.43-2.89-0.24-6.39,2.66-7.82
				c2.89-1.43,6.4-0.24,7.82,2.66c3.73,7.55,11.27,12.25,19.69,12.25c8.44,0,15.99-4.71,19.71-12.29c1.42-2.9,4.92-4.1,7.82-2.67
				c2.9,1.42,4.09,4.92,2.67,7.82C601.63,156.19,590.06,163.41,577.12,163.41z"/>
		</g>
		<g>
			<path class="st1" d="M444.94,163.41c-12.93,0-24.5-7.22-30.2-18.83c-1.42-2.9-0.22-6.4,2.67-7.82c2.9-1.42,6.4-0.22,7.82,2.67
				c3.72,7.58,11.27,12.29,19.71,12.29c8.42,0,15.96-4.69,19.68-12.25c1.43-2.89,4.93-4.08,7.82-2.66c2.89,1.43,4.08,4.93,2.66,7.82
				C469.4,156.22,457.84,163.41,444.94,163.41z"/>
		</g>
		<g>
			<path class="st1" d="M511.96,268.76c-10.54,0-19.97-5.88-24.61-15.35c-1.42-2.9-0.22-6.4,2.67-7.82c2.9-1.42,6.4-0.22,7.82,2.67
				c2.66,5.43,8.07,8.81,14.12,8.81c6.03,0,11.43-3.36,14.1-8.77c1.43-2.89,4.92-4.08,7.82-2.65c2.89,1.43,4.08,4.93,2.65,7.82
				C531.89,262.9,522.47,268.76,511.96,268.76z"/>
		</g>
		<g>
			<path class="st14" d="M662.21,466.97c0.11-2.37,0.17-4.75,0.17-7.15v-3.93"/>
		</g>
		<g>
			<path class="st14" d="M361.98,466.97c0.11-2.37,0.17-4.75,0.17-7.15v-3.93"/>
		</g>
		<g>
			<path class="st20" d="M511.94,514.68c-44.79,0-81.23-36.44-81.23-81.23c0-14.12,3.68-28.03,10.65-40.23
				c13.93-24.42,38.98-39.71,67-40.91c1.27-0.08,2.42-0.09,3.57-0.09c1.15,0,2.32,0.01,3.45,0.09c28.15,1.2,53.2,16.5,67.14,40.93
				c6.96,12.18,10.63,26.08,10.63,40.21C593.17,478.24,556.73,514.68,511.94,514.68z"/>
			<g>
				<path class="st1" d="M511.94,358.06c1.31,0,2.26,0.02,3.08,0.08l0.12,0.01l0.12,0.01c26.01,1.11,49.26,15.31,62.2,37.99
					c6.45,11.3,9.87,24.2,9.87,37.31c0,41.57-33.82,75.39-75.39,75.39c-41.57,0-75.39-33.82-75.39-75.39
					c0-13.1,3.42-26.01,9.89-37.34c12.93-22.66,36.17-36.85,62.18-37.96l0.12,0l0.12-0.01C509.7,358.09,510.65,358.06,511.94,358.06
					 M511.94,346.38c-1.27,0-2.55,0.02-3.82,0.1c-30.79,1.31-57.44,18.63-71.83,43.84c-7.26,12.72-11.42,27.44-11.42,43.13
					c0,48.08,38.99,87.07,87.07,87.07c48.1,0,87.07-38.99,87.07-87.07c0-15.68-4.14-30.39-11.4-43.11
					c-14.39-25.22-41.04-42.55-71.84-43.86C514.51,346.4,513.22,346.38,511.94,346.38L511.94,346.38z"/>
			</g>
		</g>
		<g>
			<path class="st2" d="M382.1,445.42c-7.99-0.78-15.28-5.35-19.42-12.3c-4.16-6.98-4.69-15.55-1.57-22.95
				c8.07,0.76,15.21,5.24,19.42,12.32C384.69,429.47,385.22,438.03,382.1,445.42z"/>
			<g>
				<path class="st1" d="M364.29,415.49c5.07,1.41,9.44,4.7,12.23,9.39c2.75,4.62,3.56,10.1,2.4,15.23
					c-5.07-1.4-9.43-4.7-12.22-9.38C363.94,426.1,363.13,420.62,364.29,415.49 M358.66,405.38c-0.13,0-0.26,0-0.4,0
					c-5.08,9.08-5.3,20.54,0.41,30.13c5.63,9.45,15.62,14.7,25.89,14.7c0.13,0,0.26,0,0.4,0c5.08-9.08,5.3-20.54-0.4-30.11
					C378.91,410.63,368.92,405.38,358.66,405.38L358.66,405.38z"/>
			</g>
		</g>
		<g>
			<rect x="384.12" y="299.59" class="st1" width="9.35" height="163.68"/>
		</g>
		<g>
			<path class="st2" d="M382.1,358.42c-8.07-0.76-15.21-5.24-19.42-12.3c-4.16-6.99-4.69-15.55-1.57-22.95
				c8.07,0.76,15.21,5.24,19.42,12.32C384.69,342.46,385.22,351.03,382.1,358.42z"/>
			<g>
				<path class="st1" d="M364.29,328.49c5.07,1.41,9.44,4.7,12.23,9.39c2.75,4.62,3.56,10.1,2.4,15.23
					c-5.07-1.4-9.43-4.7-12.22-9.38C363.94,339.1,363.13,333.62,364.29,328.49 M358.66,318.38c-0.13,0-0.26,0-0.4,0
					c-5.08,9.08-5.3,20.54,0.41,30.13c5.63,9.45,15.62,14.7,25.89,14.7c0.13,0,0.26,0,0.4,0c5.08-9.08,5.3-20.54-0.4-30.11
					C378.91,323.63,368.92,318.38,358.66,318.38L358.66,318.38z"/>
			</g>
		</g>
		<g>
			<path class="st2" d="M395.49,358.42c-3.13-7.4-2.59-15.96,1.56-22.94c4.21-7.07,11.35-11.56,19.42-12.32
				c3.13,7.4,2.59,15.97-1.57,22.95C410.7,353.19,403.56,357.67,395.49,358.42z"/>
			<g>
				<path class="st1" d="M413.29,328.49c1.16,5.13,0.35,10.61-2.4,15.24c-2.79,4.68-7.15,7.97-12.22,9.38
					c-1.16-5.13-0.36-10.61,2.4-15.23C403.86,333.19,408.22,329.89,413.29,328.49 M418.93,318.38c-10.27,0-20.26,5.25-25.89,14.72
					c-5.7,9.58-5.48,21.03-0.4,30.11c0.13,0,0.26,0,0.4,0c10.27,0,20.26-5.25,25.89-14.7c5.71-9.59,5.49-21.04,0.41-30.13
					C419.19,318.38,419.06,318.38,418.93,318.38L418.93,318.38z"/>
			</g>
		</g>
		<path class="st1" d="M511.93,358.06c1.31,0,2.26,0.02,3.08,0.08c0.08,0.01,0.16,0.01,0.24,0.01c26.01,1.11,49.26,15.31,62.2,37.99
			c6.45,11.3,9.87,24.2,9.87,37.31c0,41.57-33.82,75.39-75.39,75.39c-41.57,0-75.39-33.82-75.39-75.39c0-13.1,3.42-26.01,9.89-37.34
			c12.93-22.66,36.17-36.85,62.18-37.96c0.08,0,0.15-0.01,0.23-0.01C509.68,358.09,510.63,358.06,511.93,358.06 M511.93,346.38
			c-1.27,0-2.55,0.02-3.82,0.1c-30.79,1.31-57.44,18.63-71.83,43.84c-7.26,12.72-11.42,27.44-11.42,43.13
			c0,48.08,38.99,87.07,87.07,87.07c48.1,0,87.07-38.99,87.07-87.07c0-15.68-4.14-30.39-11.4-43.11
			c-14.39-25.22-41.04-42.55-71.84-43.86C514.49,346.4,513.2,346.38,511.93,346.38L511.93,346.38z"/>
		<g>
			<path class="st21" d="M466.09,394.35c-7.77,0-15.24-1.99-21.86-5.79c14.35-21.69,37.94-35.13,64.14-36.25
				c0.58-0.04,1.13-0.06,1.67-0.07c-0.22,5.34-1.39,10.5-3.47,15.36C499.64,383.86,483.75,394.35,466.09,394.35z"/>
			<g>
				<path class="st1" d="M503.37,358.56c-0.51,2.31-1.23,4.57-2.17,6.76c-6.01,14.09-19.79,23.19-35.11,23.19
					c-4.49,0-8.86-0.76-12.97-2.25C465.52,370.75,483.45,360.79,503.37,358.56 M511.94,346.38c-1.27,0-2.55,0.02-3.82,0.1
					c-30.79,1.31-57.44,18.63-71.83,43.84c8.32,6.21,18.63,9.87,29.79,9.87c20.6,0,38.25-12.48,45.85-30.29
					c2.57-5.99,3.98-12.6,3.98-19.54c0-1.31-0.06-2.61-0.16-3.88C514.51,346.4,513.22,346.38,511.94,346.38L511.94,346.38z"/>
			</g>
		</g>
		<g>
			<path class="st21" d="M557.81,394.35c-17.67,0-33.57-10.5-40.5-26.74c-2.09-4.87-3.25-10.03-3.47-15.37
				c0.52,0.01,1.04,0.03,1.55,0.07c26.31,1.12,49.92,14.56,64.28,36.27C573.04,392.37,565.58,394.35,557.81,394.35z"/>
			<g>
				<path class="st1" d="M520.52,358.56c19.92,2.23,37.85,12.19,50.25,27.71c-4.11,1.48-8.47,2.24-12.96,2.24
					c-15.33,0-29.11-9.1-35.13-23.21C521.75,363.12,521.03,360.87,520.52,358.56 M511.94,346.38c-1.27,0-2.55,0.02-3.82,0.1
					c-0.1,1.27-0.16,2.57-0.16,3.88c0,6.95,1.41,13.55,3.98,19.54c7.6,17.81,25.27,30.29,45.87,30.29c11.16,0,21.47-3.66,29.79-9.85
					c-14.39-25.22-41.04-42.55-71.84-43.86C514.51,346.4,513.22,346.38,511.94,346.38L511.94,346.38z"/>
			</g>
		</g>
		<g>
			<path class="st1" d="M546.29,433.99c-8.66,0-16.42-4.84-20.24-12.62c-1.42-2.9-0.22-6.4,2.67-7.82c2.9-1.42,6.4-0.22,7.82,2.67
				c1.84,3.75,5.57,6.08,9.75,6.08c4.16,0,7.9-2.32,9.74-6.06c1.43-2.89,4.93-4.08,7.82-2.65c2.89,1.43,4.08,4.93,2.66,7.82
				C562.68,429.17,554.94,433.99,546.29,433.99z"/>
		</g>
		<g>
			<path class="st1" d="M477.62,433.99c-8.67,0-16.42-4.84-20.24-12.62c-1.42-2.9-0.22-6.4,2.67-7.82c2.9-1.42,6.4-0.22,7.82,2.67
				c1.84,3.75,5.57,6.08,9.75,6.08c4.16,0,7.89-2.32,9.74-6.06c1.43-2.89,4.92-4.08,7.82-2.65c2.89,1.43,4.08,4.93,2.65,7.82
				C494.01,429.17,486.27,433.99,477.62,433.99z"/>
		</g>
		<g>
			<path class="st2" d="M395.49,445.43c-3.13-7.4-2.59-15.96,1.56-22.94c4.21-7.07,11.35-11.56,19.42-12.32
				c3.13,7.4,2.59,15.97-1.57,22.95C410.7,440.19,403.56,444.67,395.49,445.43z"/>
			<g>
				<path class="st1" d="M413.29,415.49c1.16,5.13,0.35,10.61-2.4,15.24c-2.79,4.68-7.15,7.97-12.22,9.38
					c-1.16-5.13-0.36-10.61,2.4-15.23C403.86,420.19,408.22,416.9,413.29,415.49 M418.93,405.38c-10.27,0-20.26,5.25-25.9,14.72
					c-5.7,9.58-5.48,21.03-0.4,30.11c0.13,0,0.26,0,0.4,0c10.27,0,20.26-5.25,25.89-14.7c5.71-9.59,5.49-21.04,0.41-30.13
					C419.19,405.39,419.06,405.38,418.93,405.38L418.93,405.38z"/>
			</g>
		</g>
		<g>
			<path class="st2" d="M382.09,401.93c-8.07-0.76-15.21-5.24-19.41-12.31c-4.16-6.98-4.69-15.55-1.57-22.95
				c8.07,0.76,15.21,5.24,19.42,12.32C384.69,385.97,385.22,394.53,382.09,401.93z"/>
			<g>
				<path class="st1" d="M364.29,371.99c5.07,1.41,9.44,4.7,12.23,9.39c2.75,4.62,3.56,10.1,2.4,15.23
					c-5.07-1.4-9.43-4.7-12.22-9.38C363.94,382.6,363.13,377.12,364.29,371.99 M358.66,361.88c-0.13,0-0.26,0-0.4,0
					c-5.08,9.08-5.3,20.54,0.41,30.13c5.63,9.45,15.62,14.7,25.89,14.7c0.13,0,0.26,0,0.4,0c5.08-9.08,5.3-20.54-0.4-30.11
					C378.91,367.13,368.92,361.88,358.66,361.88L358.66,361.88z"/>
			</g>
		</g>
		<g>
			<path class="st2" d="M395.49,401.93c-3.13-7.4-2.6-15.96,1.56-22.94c4.21-7.07,11.35-11.56,19.42-12.32
				c3.13,7.4,2.59,15.97-1.57,22.95C410.7,396.69,403.56,401.17,395.49,401.93z"/>
			<g>
				<path class="st1" d="M413.29,371.99c1.16,5.13,0.35,10.61-2.4,15.24c-2.79,4.68-7.15,7.97-12.22,9.38
					c-1.16-5.13-0.36-10.61,2.4-15.23C403.86,376.69,408.22,373.4,413.29,371.99 M418.93,361.88c-10.27,0-20.26,5.25-25.9,14.72
					c-5.7,9.58-5.48,21.03-0.4,30.11c0.13,0,0.26,0,0.4,0c10.27,0,20.26-5.25,25.89-14.7c5.71-9.59,5.49-21.04,0.41-30.13
					C419.19,361.88,419.06,361.88,418.93,361.88L418.93,361.88z"/>
			</g>
		</g>
		<g>
			<path class="st2" d="M388.79,316.71c-4.11-3.13-6.59-8.04-6.59-13.27c0-5.23,2.48-10.15,6.59-13.28
				c4.11,3.13,6.59,8.05,6.59,13.28C395.38,308.67,392.9,313.58,388.79,316.71z"/>
			<g>
				<path class="st1" d="M388.79,294.98c1.96,2.34,3.08,5.33,3.08,8.46c0,3.13-1.13,6.11-3.08,8.45c-1.96-2.34-3.08-5.32-3.08-8.45
					C385.71,300.31,386.84,297.32,388.79,294.98 M388.79,285.96c-6.04,3.49-10.09,10-10.09,17.48c0,7.47,4.05,13.98,10.09,17.47
					c6.04-3.49,10.09-10,10.09-17.47C398.88,295.96,394.83,289.45,388.79,285.96L388.79,285.96z"/>
			</g>
		</g>
		<g>
			<path class="st2" d="M628.13,445.42c-7.99-0.78-15.28-5.35-19.42-12.3c-4.16-6.98-4.69-15.55-1.57-22.95
				c8.07,0.76,15.21,5.24,19.42,12.32C630.72,429.47,631.25,438.03,628.13,445.42z"/>
			<g>
				<path class="st1" d="M610.32,415.49c5.07,1.41,9.44,4.7,12.23,9.39c2.75,4.62,3.56,10.1,2.4,15.23
					c-5.07-1.4-9.43-4.7-12.22-9.38C609.97,426.1,609.16,420.62,610.32,415.49 M604.68,405.38c-0.13,0-0.26,0-0.4,0
					c-5.08,9.08-5.3,20.54,0.41,30.13c5.63,9.45,15.62,14.7,25.89,14.7c0.13,0,0.26,0,0.4,0c5.08-9.08,5.3-20.54-0.4-30.11
					C624.94,410.63,614.95,405.38,604.68,405.38L604.68,405.38z"/>
			</g>
		</g>
		<g>
			<rect x="630.15" y="299.59" class="st1" width="9.35" height="163.68"/>
		</g>
		<g>
			<path class="st2" d="M628.12,358.42c-8.07-0.76-15.21-5.24-19.41-12.3c-4.16-6.99-4.69-15.55-1.57-22.95
				c8.07,0.76,15.21,5.24,19.42,12.32C630.72,342.46,631.25,351.02,628.12,358.42z"/>
			<g>
				<path class="st1" d="M610.32,328.49c5.07,1.41,9.44,4.7,12.23,9.39c2.75,4.62,3.56,10.1,2.4,15.23
					c-5.07-1.4-9.43-4.7-12.22-9.38C609.97,339.1,609.16,333.62,610.32,328.49 M604.68,318.38c-0.13,0-0.26,0-0.4,0
					c-5.08,9.08-5.3,20.54,0.41,30.13c5.63,9.45,15.62,14.7,25.89,14.7c0.13,0,0.26,0,0.4,0c5.08-9.08,5.3-20.54-0.4-30.11
					C624.94,323.63,614.95,318.38,604.68,318.38L604.68,318.38z"/>
			</g>
		</g>
		<g>
			<path class="st2" d="M641.52,358.42c-3.13-7.4-2.59-15.96,1.56-22.94c4.21-7.08,11.35-11.56,19.42-12.32
				c3.13,7.4,2.59,15.97-1.57,22.95C656.73,353.19,649.59,357.67,641.52,358.42z"/>
			<g>
				<path class="st1" d="M659.32,328.49c1.16,5.13,0.35,10.61-2.4,15.24c-2.79,4.68-7.15,7.97-12.22,9.38
					c-1.16-5.13-0.36-10.61,2.4-15.23C649.89,333.19,654.25,329.89,659.32,328.49 M664.96,318.38c-10.27,0-20.26,5.25-25.89,14.72
					c-5.7,9.58-5.48,21.03-0.4,30.11c0.13,0,0.26,0,0.4,0c10.27,0,20.26-5.25,25.89-14.7c5.71-9.59,5.49-21.04,0.41-30.13
					C665.22,318.38,665.09,318.38,664.96,318.38L664.96,318.38z"/>
			</g>
		</g>
		<g>
			<path class="st2" d="M641.52,445.42c-3.12-7.4-2.59-15.96,1.56-22.93c4.21-7.08,11.35-11.56,19.42-12.32
				c3.13,7.4,2.59,15.97-1.57,22.95C656.79,440.08,649.51,444.64,641.52,445.42z"/>
			<g>
				<path class="st1" d="M659.32,415.49c1.16,5.13,0.35,10.61-2.4,15.24c-2.79,4.68-7.15,7.97-12.22,9.38
					c-1.16-5.13-0.36-10.61,2.4-15.23C649.89,420.19,654.25,416.9,659.32,415.49 M664.96,405.38c-10.27,0-20.26,5.25-25.9,14.72
					c-5.7,9.58-5.48,21.03-0.4,30.11c0.13,0,0.26,0,0.4,0c10.27,0,20.26-5.25,25.89-14.7c5.71-9.59,5.49-21.04,0.41-30.13
					C665.22,405.39,665.09,405.38,664.96,405.38L664.96,405.38z"/>
			</g>
		</g>
		<g>
			<path class="st2" d="M628.12,401.93c-8.07-0.76-15.21-5.24-19.41-12.31c-4.16-6.99-4.69-15.55-1.57-22.95
				c8.07,0.76,15.21,5.24,19.42,12.32C630.72,385.97,631.25,394.53,628.12,401.93z"/>
			<g>
				<path class="st1" d="M610.32,371.99c5.07,1.41,9.44,4.7,12.23,9.39c2.75,4.62,3.56,10.1,2.4,15.23
					c-5.07-1.4-9.43-4.7-12.22-9.38C609.97,382.6,609.16,377.12,610.32,371.99 M604.68,361.88c-0.13,0-0.26,0-0.4,0
					c-5.08,9.08-5.3,20.54,0.41,30.13c5.63,9.45,15.62,14.7,25.89,14.7c0.13,0,0.26,0,0.4,0c5.08-9.08,5.3-20.54-0.4-30.11
					C624.94,367.13,614.95,361.88,604.68,361.88L604.68,361.88z"/>
			</g>
		</g>
		<g>
			<path class="st2" d="M641.52,401.93c-3.13-7.4-2.59-15.96,1.56-22.94c4.21-7.08,11.35-11.56,19.42-12.32
				c3.13,7.4,2.59,15.97-1.57,22.95C656.73,396.69,649.59,401.17,641.52,401.93z"/>
			<g>
				<path class="st1" d="M659.32,371.99c1.16,5.13,0.35,10.61-2.4,15.24c-2.79,4.68-7.15,7.97-12.22,9.38
					c-1.16-5.13-0.36-10.61,2.4-15.23C649.89,376.69,654.25,373.4,659.32,371.99 M664.96,361.88c-10.27,0-20.26,5.25-25.9,14.72
					c-5.7,9.58-5.48,21.03-0.4,30.11c0.13,0,0.26,0,0.4,0c10.27,0,20.26-5.25,25.89-14.7c5.71-9.59,5.49-21.04,0.41-30.13
					C665.22,361.88,665.09,361.88,664.96,361.88L664.96,361.88z"/>
			</g>
		</g>
		<g>
			<path class="st2" d="M634.82,316.71c-4.11-3.13-6.59-8.04-6.59-13.27c0-5.23,2.48-10.15,6.59-13.28
				c4.11,3.13,6.59,8.05,6.59,13.28C641.41,308.66,638.93,313.58,634.82,316.71z"/>
			<g>
				<path class="st1" d="M634.82,294.98c1.96,2.34,3.08,5.33,3.08,8.46c0,3.13-1.13,6.11-3.08,8.45c-1.96-2.34-3.08-5.32-3.08-8.45
					C631.74,300.31,632.86,297.32,634.82,294.98 M634.82,285.96c-6.04,3.49-10.09,10-10.09,17.48c0,7.47,4.05,13.98,10.09,17.47
					c6.04-3.49,10.09-10,10.09-17.47C644.91,295.96,640.86,289.45,634.82,285.96L634.82,285.96z"/>
			</g>
		</g>
		<g>
			<path class="st1" d="M491.93,222.88c-1.76-1.02-2.97-2.95-3.03-5.09l0,0c0-0.01,0-0.05,0-0.14c0-0.01,0-0.02,0-0.03
				c0-0.01,0-0.02,0-0.03c0-1.28,0-10.05,0-59.57c0-59.68-62.25-64.37-64.9-64.55c-3.22-0.21-5.66-2.98-5.46-6.2
				c0.2-3.22,2.97-5.66,6.18-5.46c0.76,0.05,75.86,5.46,75.86,76.21l0,53.76l26.47,0c3.23-0.01,5.84,2.62,5.84,5.84
				c0,3.23-2.62,5.84-5.84,5.84l-30.93,0c-0.45,0.11-0.92,0.17-1.39,0.17C493.72,223.63,492.76,223.36,491.93,222.88z"/>
		</g>
		<g>
			<path class="st0" d="M556.35,611.24c-4.57-12.21-6.88-25.06-6.88-38.23c0-60.12,48.92-109.03,109.06-109.03
				c60.12,0,109.03,48.91,109.03,109.03c0,10.79-1.57,21.42-4.67,31.63c-10.81,3.46-21.84,5.66-32.81,6.56L556.35,611.24z"/>
			<path class="st1" d="M658.53,468.96c57.38,0,104.06,46.68,104.06,104.06c0,9.42-1.25,18.7-3.73,27.68
				c-9.58,2.87-19.3,4.73-28.99,5.54l-170.01,0.03c-3.6-10.68-5.41-21.84-5.41-33.25C554.44,515.64,601.14,468.96,658.53,468.96
				 M658.53,459.01c-62.97,0-114.03,51.03-114.03,114.01c0,15.3,3.01,29.87,8.46,43.2l177.33-0.03c12.68-1.02,24.95-3.67,36.58-7.6
				c3.68-11.19,5.67-23.13,5.67-35.56C772.53,510.04,721.5,459.01,658.53,459.01L658.53,459.01z"/>
		</g>
		<g>
			<path class="st2" d="M581.81,611.23c-5.96-11.85-9.1-25.09-9.1-38.47c0-47.31,38.49-85.8,85.8-85.8c47.31,0,85.8,38.49,85.8,85.8
				c0,13.09-3.02,26.11-8.77,37.81c-1.92,0.24-3.76,0.42-5.58,0.56L581.81,611.23z"/>
			<path class="st1" d="M658.51,491.93c44.57,0,80.83,36.26,80.83,80.83c0,11.61-2.39,22.74-7.1,33.18
				c-0.83,0.08-1.66,0.16-2.47,0.22l-144.83,0.1c-4.76-10.45-7.26-21.92-7.26-33.5C577.69,528.18,613.95,491.93,658.51,491.93
				 M658.51,481.98c-50.14,0-90.78,40.64-90.78,90.78c0,15.74,4,30.54,11.07,43.45l151.36-0.1c2.91-0.22,5.77-0.55,8.63-0.95
				c6.69-12.66,10.5-27.08,10.5-42.4C749.29,522.62,708.65,481.98,658.51,481.98L658.51,481.98z"/>
		</g>
		<g>
			<path class="st3" d="M607.62,611.23c-8.24-10.95-12.75-24.41-12.75-38.18c0-35.09,28.55-63.64,63.65-63.64
				c35.09,0,63.64,28.55,63.64,63.64c0,13.75-4.49,27.19-12.7,38.11L607.62,611.23z"/>
			<path class="st1" d="M658.52,514.39c32.35,0,58.67,26.32,58.67,58.67c0,12.04-3.53,23.4-10.26,33.13l-96.77,0.07
				c-6.76-9.76-10.31-21.15-10.31-33.2C599.85,540.7,626.16,514.39,658.52,514.39 M658.52,504.44c-37.9,0-68.62,30.71-68.62,68.62
				c0,16.34,5.72,31.36,15.3,43.15l106.7-0.07c9.55-11.76,15.25-26.76,15.25-43.08C727.13,535.15,696.42,504.44,658.52,504.44
				L658.52,504.44z"/>
		</g>
		<g>
			<path class="st3" d="M643.79,611.22c-15.82-6.07-26.38-21.38-26.38-38.38c0-22.67,18.44-41.11,41.11-41.11
				c22.67,0,41.11,18.44,41.11,41.11c0,16.99-10.55,32.3-26.34,38.35L643.79,611.22z"/>
			<path class="st1" d="M658.51,536.71c19.93,0,36.14,16.21,36.14,36.14c0,14.64-8.9,27.85-22.32,33.38l-27.6,0.02
				c-13.44-5.54-22.36-18.76-22.36-33.4C622.38,552.92,638.59,536.71,658.51,536.71 M658.51,526.76
				c-25.44,0-46.09,20.62-46.09,46.09c0,19.97,12.71,36.96,30.47,43.35l31.29-0.02c17.76-6.39,30.42-23.38,30.42-43.32
				C704.6,547.38,683.98,526.76,658.51,526.76L658.51,526.76z"/>
		</g>
		<g>
			<path class="st3" d="M643.79,611.21c-15.82-6.06-26.38-21.38-26.38-38.37c0-22.67,18.44-41.11,41.11-41.11
				c22.67,0,41.11,18.44,41.11,41.11c0,16.99-10.55,32.3-26.34,38.35L643.79,611.21z"/>
			<path class="st1" d="M658.51,536.7c19.93,0,36.14,16.21,36.14,36.14c0,14.64-8.9,27.85-22.32,33.38l-27.6,0.02
				c-13.44-5.54-22.36-18.76-22.36-33.4C622.38,552.91,638.59,536.7,658.51,536.7 M658.51,526.75c-25.44,0-46.09,20.62-46.09,46.09
				c0,19.97,12.71,36.96,30.47,43.35l31.29-0.02c17.76-6.39,30.42-23.38,30.42-43.32C704.6,547.37,683.98,526.75,658.51,526.75
				L658.51,526.75z"/>
		</g>
		<g>
			<path class="st4" d="M658.52,591.75c-10.19,0-18.49-8.29-18.49-18.49c0-10.19,8.29-18.49,18.49-18.49
				c10.19,0,18.49,8.29,18.49,18.49C677,583.46,668.71,591.75,658.52,591.75z"/>
			<path class="st1" d="M658.51,559.75c7.45,0,13.51,6.06,13.51,13.51s-6.06,13.51-13.51,13.51S645,580.71,645,573.26
				S651.06,559.75,658.51,559.75 M658.51,549.8c-12.96,0-23.46,10.5-23.46,23.46c0,12.96,10.5,23.46,23.46,23.46
				c12.96,0,23.46-10.5,23.46-23.46C681.98,560.31,671.47,549.8,658.51,549.8L658.51,549.8z"/>
		</g>
		<g>
			<path class="st0" d="M659.72,611.29c8.24-52.84,53.61-92.02,107.72-92.02c27.12,0,52.83,9.89,72.86,27.94
				c-25.15,36.57-66.05,60.4-110.25,64.04L659.72,611.29z"/>
			<path class="st1" d="M767.45,524.24c24.4,0,47.6,8.38,66.18,23.76c-24.43,33.25-62.61,54.81-103.78,58.26l-64.15,0.04
				C675.83,558.82,717.78,524.24,767.45,524.24 M767.45,514.29c-58.89,0-107.37,44.67-113.39,101.97l76.2-0.05
				c48.87-3.95,91.3-30.76,116.52-69.76C826.27,526.53,798.29,514.29,767.45,514.29L767.45,514.29z"/>
		</g>
		<g>
			<path class="st2" d="M683.17,611.12c7.88-39.71,43.1-68.99,84.15-68.99c21.96,0,42.53,8.12,58.43,22.96
				c-25.26,26.74-59.05,43.03-95.69,46.01L683.17,611.12z"/>
			<g>
				<path class="st1" d="M767.32,547.11c18.96,0,36.82,6.42,51.2,18.26c-23.93,23.61-55.06,37.97-88.66,40.76l-40.39,0.02
					C699.06,571.8,730.73,547.11,767.32,547.11 M767.32,537.16c-46.13,0-84.21,34.4-90.01,78.94l52.95-0.02
					c40.66-3.26,76.85-22.38,102.39-51.16C816.17,547.81,792.99,537.16,767.32,537.16L767.32,537.16z"/>
			</g>
		</g>
		<g>
			<path class="st3" d="M706.24,611.16c7.53-27.3,32.42-46.55,61.31-46.55c15.55,0,30.15,5.48,41.68,15.55
				c-22.88,17.93-50.12,28.61-79.16,30.98L706.24,611.16z"/>
			<path class="st1" d="M767.55,569.58c12.21,0,23.78,3.67,33.5,10.48c-20.95,14.99-45.34,23.96-71.19,26.1l-16.69,0.01
				C721.94,584.41,743.2,569.58,767.55,569.58 M767.55,559.63c-33.77,0-61.83,24.37-67.52,56.51l30.24-0.02
				c32.83-2.64,62.75-15.62,86.48-35.66C804.33,567.61,786.87,559.63,767.55,559.63L767.55,559.63z"/>
		</g>
		<g>
			<path class="st3" d="M729.94,611.17c6.56-14.54,21.16-24.22,37.51-24.22c7.84,0,15.44,2.22,21.96,6.34
				c-18.24,10.04-38.61,16.2-59.35,17.89H729.94z"/>
			<path class="st1" d="M767.45,591.92c3.61,0,7.16,0.53,10.55,1.56c-12.19,5.62-25.16,9.53-38.42,11.57
				C746.29,596.93,756.42,591.92,767.45,591.92 M767.45,581.97c-21.31,0-39.27,14.47-44.54,34.17h7.36
				c24.82-1.99,47.98-9.9,68.07-22.31C790.15,586.44,779.33,581.97,767.45,581.97L767.45,581.97z"/>
		</g>
		<g>
			<path class="st0" d="M295.31,611.21c-10.98-0.9-22-3.1-32.81-6.56c-3.1-10.21-4.67-20.84-4.67-31.63
				c0-60.12,48.91-109.03,109.03-109.03c60.14,0,109.06,48.91,109.06,109.03c0,13.17-2.31,26.01-6.88,38.23L295.31,611.21z"/>
			<path class="st1" d="M366.87,468.96c57.39,0,104.08,46.68,104.08,104.06c0,11.41-1.82,22.57-5.41,33.25l-170.01-0.03
				c-9.68-0.81-19.41-2.67-28.99-5.54c-2.48-8.97-3.73-18.26-3.73-27.68C262.81,515.64,309.49,468.96,366.87,468.96 M366.87,459.01
				c-62.97,0-114.01,51.03-114.01,114.01c0,12.44,1.99,24.37,5.67,35.56c11.64,3.93,23.9,6.58,36.58,7.6l177.33,0.03
				c5.45-13.33,8.46-27.9,8.46-43.2C480.9,510.04,429.84,459.01,366.87,459.01L366.87,459.01z"/>
		</g>
		<g>
			<path class="st2" d="M295.42,611.13c-1.82-0.14-3.66-0.33-5.58-0.56c-5.74-11.7-8.77-24.72-8.77-37.81
				c0-47.31,38.49-85.8,85.8-85.8s85.8,38.49,85.8,85.8c0,13.38-3.14,26.62-9.1,38.47L295.42,611.13z"/>
			<path class="st1" d="M366.88,491.93c44.57,0,80.83,36.26,80.83,80.83c0,11.58-2.5,23.05-7.26,33.5l-144.83-0.1
				c-0.81-0.07-1.64-0.14-2.47-0.22c-4.71-10.43-7.1-21.57-7.1-33.18C286.05,528.18,322.31,491.93,366.88,491.93 M366.88,481.98
				c-50.14,0-90.78,40.64-90.78,90.78c0,15.32,3.81,29.75,10.5,42.4c2.86,0.4,5.72,0.72,8.63,0.95l151.36,0.1
				c7.06-12.91,11.07-27.71,11.07-43.45C457.66,522.62,417.02,481.98,366.88,481.98L366.88,481.98z"/>
		</g>
		<g>
			<path class="st3" d="M315.93,611.16c-8.2-10.92-12.7-24.36-12.7-38.11c0-35.09,28.55-63.64,63.64-63.64s63.65,28.55,63.65,63.64
				c0,13.76-4.51,27.23-12.75,38.18L315.93,611.16z"/>
			<path class="st1" d="M366.88,514.39c32.35,0,58.67,26.32,58.67,58.67c0,12.05-3.55,23.44-10.31,33.2l-96.77-0.07
				c-6.73-9.73-10.26-21.09-10.26-33.13C308.21,540.7,334.53,514.39,366.88,514.39 M366.88,504.44c-37.9,0-68.62,30.71-68.62,68.62
				c0,16.32,5.7,31.31,15.25,43.08l106.7,0.07c9.57-11.79,15.3-26.81,15.3-43.15C435.5,535.15,404.78,504.44,366.88,504.44
				L366.88,504.44z"/>
		</g>
		<g>
			<path class="st3" d="M352.1,611.2c-15.79-6.05-26.34-21.36-26.34-38.35c0-22.67,18.44-41.11,41.11-41.11
				c22.67,0,41.11,18.44,41.11,41.11c0,17-10.57,32.31-26.38,38.38L352.1,611.2z"/>
			<path class="st1" d="M366.88,536.71c19.93,0,36.14,16.21,36.14,36.14c0,14.64-8.92,27.86-22.36,33.4l-27.6-0.02
				c-13.42-5.53-22.32-18.74-22.32-33.38C330.74,552.92,346.95,536.71,366.88,536.71 M366.88,526.76
				c-25.47,0-46.09,20.62-46.09,46.09c0,19.95,12.66,36.93,30.42,43.32l31.29,0.02c17.76-6.39,30.47-23.38,30.47-43.35
				C412.96,547.38,392.32,526.76,366.88,526.76L366.88,526.76z"/>
		</g>
		<g>
			<path class="st3" d="M352.1,611.19c-15.79-6.05-26.34-21.36-26.34-38.35c0-22.67,18.44-41.11,41.11-41.11
				c22.67,0,41.11,18.44,41.11,41.11c0,17-10.57,32.31-26.38,38.37L352.1,611.19z"/>
			<path class="st1" d="M366.88,536.7c19.93,0,36.14,16.21,36.14,36.14c0,14.64-8.92,27.86-22.36,33.4l-27.6-0.02
				c-13.42-5.53-22.32-18.74-22.32-33.38C330.74,552.91,346.95,536.7,366.88,536.7 M366.88,526.75c-25.47,0-46.09,20.62-46.09,46.09
				c0,19.95,12.66,36.93,30.42,43.32l31.29,0.02c17.76-6.39,30.47-23.38,30.47-43.35C412.96,547.37,392.32,526.75,366.88,526.75
				L366.88,526.75z"/>
		</g>
		<g>
			<path class="st4" d="M366.88,591.75c-10.19,0-18.49-8.29-18.49-18.49c0-10.19,8.29-18.49,18.49-18.49
				c10.19,0,18.49,8.29,18.49,18.49C385.36,583.46,377.07,591.75,366.88,591.75z"/>
			<path class="st1" d="M366.88,559.75c7.45,0,13.51,6.06,13.51,13.51s-6.06,13.51-13.51,13.51s-13.51-6.06-13.51-13.51
				S359.43,559.75,366.88,559.75 M366.88,549.8c-12.96,0-23.46,10.5-23.46,23.46c0,12.96,10.5,23.46,23.46,23.46
				c12.96,0,23.46-10.5,23.46-23.46C390.34,560.31,379.83,549.8,366.88,549.8L366.88,549.8z"/>
		</g>
		<g>
			<path class="st0" d="M375.86,611.17c-0.74-5.77-1.12-11.69-1.12-17.66c0-76.14,61.96-138.08,138.11-138.08
				c76.14,0,138.08,61.94,138.08,138.08c0,5.95-0.38,11.93-1.15,17.83L375.86,611.17z"/>
			<path class="st1" d="M512.85,460.4c73.4,0,133.11,59.71,133.11,133.11c0,4.28-0.21,8.58-0.62,12.85l-265.03-0.16
				c-0.4-4.17-0.59-8.42-0.59-12.69C379.71,520.11,439.44,460.4,512.85,460.4 M512.85,450.45c-79.01,0-143.08,64.04-143.08,143.06
				c0,7.71,0.6,15.27,1.79,22.63l282.53,0.17c1.19-7.44,1.82-15.05,1.82-22.81C655.9,514.49,591.83,450.45,512.85,450.45
				L512.85,450.45z"/>
		</g>
		<g>
			<path class="st2" d="M405.39,611.18c-0.98-5.93-1.48-11.98-1.48-18.03c0-60.05,48.86-108.91,108.91-108.91
				c60.07,0,108.93,48.86,108.93,108.91c0,6.08-0.51,12.17-1.52,18.15L405.39,611.18z"/>
			<g>
				<path class="st1" d="M512.82,489.22c57.32,0,103.96,46.62,103.96,103.93c0,4.4-0.28,8.81-0.83,13.18l-206.25-0.11
					c-0.54-4.32-0.81-8.69-0.81-13.06C408.89,535.84,455.51,489.22,512.82,489.22 M512.82,479.27
					c-62.9,0-113.88,50.98-113.88,113.88c0,7.88,0.8,15.57,2.31,23.01l223.12,0.12c1.54-7.46,2.36-15.2,2.36-23.13
					C626.73,530.25,575.72,479.27,512.82,479.27L512.82,479.27z"/>
			</g>
		</g>
		<g>
			<path class="st3" d="M433.66,611.23c-1.28-5.77-1.93-11.7-1.93-17.69c0-44.72,36.38-81.1,81.1-81.1c44.72,0,81.1,36.38,81.1,81.1
				c0,5.98-0.66,11.95-1.96,17.81L433.66,611.23z"/>
			<path class="st1" d="M512.83,517.41c41.98,0,76.13,34.15,76.13,76.13c0,4.29-0.36,8.59-1.08,12.83l-150.13-0.11
				c-0.7-4.18-1.05-8.43-1.05-12.72C436.7,551.56,470.85,517.41,512.83,517.41 M512.83,507.46c-47.55,0-86.08,38.52-86.08,86.08
				c0,7.83,1.04,15.44,3.01,22.66l166.11,0.12c1.96-7.26,3.03-14.9,3.03-22.78C598.91,545.99,560.39,507.46,512.83,507.46
				L512.83,507.46z"/>
		</g>
		<g>
			<path class="st3" d="M433.66,611.23c-1.28-5.77-1.93-11.7-1.93-17.69c0-44.72,36.38-81.1,81.1-81.1c44.72,0,81.1,36.38,81.1,81.1
				c0,5.98-0.66,11.95-1.96,17.81L433.66,611.23z"/>
			<path class="st1" d="M512.83,517.41c41.98,0,76.13,34.15,76.13,76.13c0,4.29-0.36,8.59-1.08,12.83l-150.13-0.11
				c-0.7-4.18-1.05-8.43-1.05-12.72C436.7,551.56,470.85,517.41,512.83,517.41 M512.83,507.46c-47.55,0-86.08,38.52-86.08,86.08
				c0,7.83,1.04,15.44,3.01,22.66l166.11,0.12c1.96-7.26,3.03-14.9,3.03-22.78C598.91,545.99,560.39,507.46,512.83,507.46
				L512.83,507.46z"/>
		</g>
		<g>
			<path class="st3" d="M463.13,611.22c-2.09-5.74-3.15-11.77-3.15-17.98c0-29.14,23.71-52.85,52.85-52.85
				c29.14,0,52.85,23.71,52.85,52.85c0,6.24-1.06,12.3-3.16,18.05L463.13,611.22z"/>
			<path class="st1" d="M512.83,545.36c26.4,0,47.88,21.48,47.88,47.88c0,4.49-0.6,8.86-1.8,13.08l-92.16-0.06
				c-1.19-4.2-1.79-8.56-1.79-13.01C464.96,566.84,486.43,545.36,512.83,545.36 M512.83,535.41c-31.93,0-57.82,25.89-57.82,57.82
				c0,8.16,1.69,15.92,4.75,22.96l106.12,0.07c3.08-7.06,4.77-14.85,4.77-23.03C570.66,561.3,544.77,535.41,512.83,535.41
				L512.83,535.41z"/>
		</g>
		<g>
			<path class="st4" d="M494.99,611.18c-4.83-4.73-7.57-11.23-7.57-18.08c0-14,11.4-25.39,25.42-25.39
				c14.01,0,25.42,11.39,25.42,25.39c0,6.86-2.75,13.36-7.59,18.11L494.99,611.18z"/>
			<path class="st1" d="M512.83,572.68c11.27,0,20.44,9.16,20.44,20.42c0,4.86-1.71,9.49-4.78,13.13l-31.35-0.02
				c-3.06-3.63-4.76-8.26-4.76-13.11C492.39,581.84,501.56,572.68,512.83,572.68 M512.83,562.73c-16.79,0-30.39,13.6-30.39,30.37
				c0,9.23,4.1,17.51,10.62,23.06l39.52,0.02c6.52-5.55,10.64-13.83,10.64-23.08C543.23,576.34,529.62,562.73,512.83,562.73
				L512.83,562.73z"/>
		</g>
		<g>
			<path class="st0" d="M295.33,611.24c-44.2-3.64-85.09-27.47-110.25-64.04c20.03-18.04,45.74-27.93,72.86-27.93
				c54.12,0,99.49,39.18,107.72,92.02L295.33,611.24z"/>
			<path class="st1" d="M257.95,524.24c49.67,0,91.61,34.58,101.75,82.07l-64.15-0.04c-41.17-3.45-79.35-25.01-103.78-58.26
				C210.35,532.62,233.55,524.24,257.95,524.24 M257.95,514.29c-30.84,0-58.82,12.24-79.34,32.16c25.22,39,67.65,65.81,116.52,69.76
				l76.2,0.05C365.31,558.96,316.84,514.29,257.95,514.29L257.95,514.29z"/>
		</g>
		<g>
			<path class="st2" d="M295.33,611.1c-36.63-2.98-70.42-19.27-95.69-46.01c15.9-14.84,36.47-22.96,58.43-22.96
				c41.05,0,76.27,29.28,84.15,68.99L295.33,611.1z"/>
			<g>
				<path class="st1" d="M258.07,547.11c36.59,0,68.27,24.69,77.86,59.04l-40.39-0.02c-33.61-2.78-64.73-17.15-88.66-40.76
					C221.25,553.53,239.11,547.11,258.07,547.11 M258.07,537.16c-25.67,0-48.85,10.64-65.34,27.76
					c25.54,28.78,61.73,47.9,102.39,51.16l52.95,0.02C342.28,571.56,304.21,537.16,258.07,537.16L258.07,537.16z"/>
			</g>
		</g>
		<g>
			<path class="st3" d="M295.33,611.14c-29.04-2.37-56.28-13.05-79.16-30.98c11.52-10.07,26.13-15.55,41.68-15.55
				c28.89,0,53.78,19.25,61.31,46.55L295.33,611.14z"/>
			<path class="st1" d="M257.85,569.58c24.34,0,45.61,14.83,54.38,36.6l-16.69-0.01c-25.86-2.15-50.24-11.12-71.19-26.1
				C234.07,573.25,245.64,569.58,257.85,569.58 M257.85,559.63c-19.32,0-36.78,7.98-49.19,20.82
				c23.73,20.05,53.65,33.03,86.48,35.66l30.24,0.02C319.68,584,291.62,559.63,257.85,559.63L257.85,559.63z"/>
		</g>
		<g>
			<path class="st3" d="M295.33,611.17c-20.74-1.69-41.11-7.84-59.35-17.89c6.53-4.12,14.12-6.34,21.96-6.34
				c16.35,0,30.95,9.69,37.51,24.22H295.33z"/>
			<path class="st1" d="M257.95,591.92c11.03,0,21.16,5.02,27.88,13.13c-13.26-2.03-26.24-5.94-38.42-11.57
				C250.78,592.45,254.34,591.92,257.95,591.92 M257.95,581.97c-11.89,0-22.71,4.48-30.89,11.86c20.1,12.41,43.25,20.32,68.07,22.31
				h7.36C297.22,596.44,279.26,581.97,257.95,581.97L257.95,581.97z"/>
		</g>
		<g>
			<g>
				<path class="st2" d="M843.03,518.09c4.31,0,8.59-1.12,12.39-3.24c7.09-3.97,11.84-11.12,12.83-19.09
					c-3.31-1.51-6.92-2.3-10.58-2.3c-4.32,0-8.6,1.12-12.41,3.25c-7.08,3.97-11.82,11.11-12.82,19.08
					C835.76,517.3,839.37,518.09,843.03,518.09C843.03,518.09,843.03,518.09,843.03,518.09z"/>
				<g>
					<path class="st1" d="M857.67,498.13c1.75,0,3.48,0.22,5.16,0.65c-1.56,5.02-5,9.36-9.7,11.98c-3.1,1.73-6.59,2.65-10.1,2.65
						c-1.75,0-3.48-0.22-5.16-0.65c1.56-5.02,4.99-9.35,9.68-11.98C850.65,499.05,854.15,498.13,857.67,498.13 M857.67,488.79
						c-4.98,0-10.03,1.24-14.69,3.85c-9.72,5.44-15.26,15.47-15.4,25.88c4.67,2.78,10.01,4.25,15.44,4.25
						c4.97,0,10.02-1.24,14.67-3.84c9.74-5.45,15.27-15.48,15.41-25.89C868.44,490.26,863.1,488.79,857.67,488.79L857.67,488.79z"/>
				</g>
			</g>
			<g>
				<line class="st15" x1="817.72" y1="527.9" x2="899.56" y2="386.14"/>
				
					<rect x="776.8" y="452.35" transform="matrix(0.5 -0.866 0.866 0.5 33.5296 972.1143)" class="st1" width="163.68" height="9.35"/>
			</g>
			<g>
				<path class="st2" d="M886.53,442.74c4.31,0,8.59-1.12,12.39-3.24c7.09-3.97,11.84-11.12,12.83-19.09
					c-3.31-1.51-6.92-2.3-10.58-2.3c-4.31,0-8.6,1.12-12.4,3.25c-7.08,3.96-11.82,11.11-12.82,19.08
					C879.26,441.95,882.87,442.74,886.53,442.74L886.53,442.74z"/>
				<g>
					<path class="st1" d="M901.17,422.78c1.75,0,3.48,0.22,5.16,0.65c-1.56,5.02-5,9.36-9.7,11.98c-3.1,1.73-6.59,2.65-10.1,2.65
						c-1.75,0-3.48-0.22-5.16-0.65c1.56-5.02,4.99-9.35,9.68-11.98C894.15,423.7,897.65,422.78,901.17,422.78 M901.17,413.44
						c-4.98,0-10.03,1.24-14.69,3.85c-9.72,5.44-15.26,15.47-15.4,25.88c4.67,2.78,10.01,4.25,15.44,4.25
						c4.97,0,10.02-1.24,14.67-3.84c9.74-5.45,15.27-15.48,15.41-25.89C911.94,414.91,906.6,413.44,901.17,413.44L901.17,413.44z"/>
				</g>
			</g>
			<g>
				<path class="st2" d="M864.35,433.75c6.41-4.85,10.22-12.53,10.11-20.64c-0.11-8.13-4.13-15.7-10.67-20.38
					c-6.41,4.85-10.22,12.53-10.11,20.66C853.79,421.5,857.82,429.07,864.35,433.75z"/>
				<g>
					<path class="st1" d="M863.88,398.94c3.66,3.77,5.84,8.85,5.91,14.23c0.07,5.37-1.96,10.51-5.53,14.37
						c-3.66-3.76-5.84-8.84-5.91-14.22C858.28,407.94,860.32,402.8,863.88,398.94 M863.72,387.15
						c-8.94,5.33-14.86,15.14-14.71,26.29c0.15,11.14,6.33,20.79,15.41,25.87c8.94-5.33,14.86-15.14,14.71-26.28
						C878.99,401.88,872.8,392.24,863.72,387.15L863.72,387.15z"/>
				</g>
			</g>
			<g>
				<path class="st2" d="M820.85,509.09c6.41-4.84,10.22-12.52,10.11-20.64c-0.11-8.12-4.13-15.7-10.66-20.38
					c-6.41,4.85-10.22,12.53-10.11,20.66C810.29,496.85,814.31,504.42,820.85,509.09z"/>
				<g>
					<path class="st1" d="M820.38,474.28c3.66,3.77,5.84,8.85,5.91,14.23c0.07,5.37-1.96,10.51-5.53,14.37
						c-3.66-3.76-5.84-8.84-5.91-14.22C814.78,483.29,816.82,478.15,820.38,474.28 M820.22,462.5
						c-8.94,5.33-14.86,15.14-14.71,26.29c0.15,11.14,6.33,20.79,15.41,25.87c8.94-5.33,14.86-15.14,14.71-26.28
						C835.48,477.23,829.3,467.58,820.22,462.5L820.22,462.5z"/>
				</g>
			</g>
			<g>
				<path class="st2" d="M864.78,480.41c4.31,0,8.59-1.12,12.39-3.24c7.09-3.97,11.84-11.12,12.83-19.09
					c-3.31-1.51-6.92-2.3-10.58-2.3c-4.32,0-8.6,1.12-12.41,3.25c-7.08,3.97-11.82,11.11-12.82,19.08
					C857.51,479.63,861.12,480.41,864.78,480.41L864.78,480.41z"/>
				<g>
					<path class="st1" d="M879.42,460.46c1.75,0,3.48,0.22,5.16,0.65c-1.56,5.02-5,9.36-9.7,11.98c-3.1,1.73-6.59,2.65-10.1,2.65
						c-1.75,0-3.48-0.22-5.16-0.65c1.56-5.02,4.99-9.35,9.68-11.98C872.4,461.38,875.9,460.46,879.42,460.46 M879.42,451.11
						c-4.98,0-10.03,1.24-14.69,3.85c-9.72,5.44-15.26,15.47-15.4,25.88c4.67,2.78,10.01,4.25,15.44,4.25
						c4.97,0,10.02-1.24,14.67-3.84c9.74-5.45,15.27-15.48,15.41-25.89C890.19,452.58,884.85,451.11,879.42,451.11L879.42,451.11z"
						/>
				</g>
			</g>
			<g>
				<path class="st2" d="M842.6,471.42c6.41-4.84,10.22-12.52,10.11-20.64c-0.11-8.13-4.13-15.71-10.66-20.38
					c-6.41,4.85-10.22,12.53-10.11,20.66C832.04,459.17,836.06,466.75,842.6,471.42z"/>
				<g>
					<path class="st1" d="M842.13,436.61c3.66,3.77,5.84,8.85,5.91,14.23c0.07,5.37-1.96,10.51-5.53,14.37
						c-3.66-3.76-5.84-8.84-5.91-14.22C836.53,445.61,838.57,440.47,842.13,436.61 M841.97,424.83
						c-8.94,5.33-14.86,15.14-14.71,26.29c0.15,11.14,6.33,20.79,15.41,25.87c8.94-5.33,14.86-15.14,14.71-26.28
						C857.23,439.56,851.05,429.91,841.97,424.83L841.97,424.83z"/>
				</g>
			</g>
			<g>
				<path class="st2" d="M891,400.97c5.12-0.66,9.73-3.67,12.34-8.2c2.62-4.53,2.93-10.03,0.93-14.79
					c-5.12,0.66-9.73,3.68-12.34,8.21C889.32,390.71,889.01,396.21,891,400.97z"/>
				<g>
					<path class="st1" d="M901.87,382.15c0.52,3,0,6.16-1.56,8.87c-1.56,2.71-4.03,4.73-6.89,5.78c-0.53-3-0.01-6.15,1.56-8.86
						C896.53,385.23,899,383.2,901.87,382.15 M906.38,374.34c-6.97,0-13.74,3.62-17.48,10.09c-3.73,6.47-3.48,14.14,0,20.18
						c6.97,0,13.74-3.62,17.47-10.08C910.12,388.05,909.86,380.38,906.38,374.34L906.38,374.34z"/>
				</g>
			</g>
		</g>
	</g>
</g>
</svg>
